<?xml version="1.0" encoding="utf-8"?>
<!-- Generator: Adobe Illustrator 17.1.0, SVG Export Plug-In . SVG Version: 6.00 Build 0)  -->
<!DOCTYPE svg PUBLIC "-//W3C//DTD SVG 1.1//EN" "http://www.w3.org/Graphics/SVG/1.1/DTD/svg11.dtd">
<svg version="1.1" id="Layer_6" xmlns="http://www.w3.org/2000/svg" xmlns:xlink="http://www.w3.org/1999/xlink" x="0px" y="0px"
	 viewBox="0 62.9 900 804.2" enable-background="new 0 62.9 900 804.2" xml:space="preserve">
<path fill="#5F95AC" d="M34.4,867h832.3c2.3,0,4.5,0,6.8-1.1h1.1l0,0c14.7-3.4,24.8-16.9,24.8-32.7V96.7
	c1.1-19.2-14.7-33.8-32.7-33.8H34.4c-18,0-33.8,14.7-33.8,33.8v736.5C-1.6,870.1,34.4,867,34.4,867z M133.6,836.6H32.1
	c-1.1-1.1-2.3-2.3-2.3-4.5v-86.8h103.8V836.6z M133.6,717H29.9v-94.7h103.8V717z M133.6,593H29.9V492.6h103.8V593z M133.6,464.4
	H29.9V356.1h103.8V464.4z M133.6,327.9H29.9v-106h103.8V327.9z M376.1,836.6H161.8v-91.4H375C376.1,745.2,376.1,836.6,376.1,836.6z
	 M376.1,717H161.8v-94.7H375C376.1,622.3,376.1,717,376.1,717z M376.1,593H161.8V492.6H375C376.1,493.7,376.1,593,376.1,593z
	 M376.1,464.4H161.8V356.1H375C376.1,356.1,376.1,464.4,376.1,464.4z M376.1,327.9H161.8v-106H375
	C376.1,221.9,376.1,327.9,376.1,327.9z M376.1,192.6H161.8V91.1H375C376.1,91.1,376.1,192.6,376.1,192.6z M620.8,836.6H405.4v-91.4
	H622v91.4H620.8z M620.8,717H405.4v-94.7H622V717H620.8z M620.8,593H405.4V492.6H622V593H620.8z M620.8,464.4H405.4V356.1H622v108.3
	H620.8z M620.8,327.9H405.4v-106H622v106H620.8z M620.8,192.6H405.4V91.1H622v101.5H620.8z M871.2,832.1c0,2.3-1.1,3.4-2.3,4.5
	H650.2v-91.4h222.2v86.8H871.2z M871.2,717H650.2v-94.7h222.2V717H871.2z M871.2,593H650.2V492.6h222.2V593H871.2z M871.2,464.4
	H650.2V356.1h222.2v108.3H871.2z M871.2,327.9H650.2v-106h222.2v106H871.2z M871.2,192.6H650.2V91.1h216.5c2.3,0,4.5,2.3,4.5,4.5
	C871.2,96.7,871.2,192.6,871.2,192.6z M354.7,570.4H182.1v-59.8h172.6V570.4z M599.4,572.7H425.7v-59.8h172.6
	C599.4,512.9,599.4,572.7,599.4,572.7z M849.8,571.5H676.1v-59.8h172.6v59.8H849.8z"/>
</svg>
