<?xml version="1.0" encoding="utf-8"?>
<!-- Generator: Adobe Illustrator 17.1.0, SVG Export Plug-In . SVG Version: 6.00 Build 0)  -->
<!DOCTYPE svg PUBLIC "-//W3C//DTD SVG 1.1//EN" "http://www.w3.org/Graphics/SVG/1.1/DTD/svg11.dtd">
<svg version="1.1" id="Capa_1" xmlns="http://www.w3.org/2000/svg" xmlns:xlink="http://www.w3.org/1999/xlink" x="0px" y="0px"
	 viewBox="0 0 20.8 22" enable-background="new 0 0 20.8 22" xml:space="preserve">
<g>
	<path fill="#5F95AC" d="M19.4,1.6V0H0v20.4h0.1C0.3,21.1,0.8,22,2,22h18.8V1.6H19.4z M18.1,1.2c0,0.3,0,1.8,0,3.8H1.2
		c0-2,0-3.5,0-3.8C2.3,1.2,17,1.2,18.1,1.2z M1.2,5.9h16.9c0,5.1,0,12.5,0,13.2c-1.1,0-15.8,0-16.9,0C1.2,18.4,1.2,11,1.2,5.9z
		 M19.6,20.8c-1.1,0-17.5,0-17.5,0c-0.4,0-0.6-0.2-0.7-0.4h18V2.9c0.1,0,0.2,0,0.2,0C19.6,4,19.6,19.7,19.6,20.8z"/>
	<rect x="10.4" y="7" fill="#5F95AC" width="6.2" height="1.2"/>
	<rect x="10.4" y="9.5" fill="#5F95AC" width="6.2" height="1.2"/>
	<rect x="10.4" y="12" fill="#5F95AC" width="6.2" height="1.2"/>
	<rect x="10.4" y="14.3" fill="#5F95AC" width="6.2" height="1.2"/>
	<rect x="10.4" y="16.8" fill="#5F95AC" width="6.2" height="1.2"/>
	<rect x="2.4" y="7" fill="#5F95AC" width="6.3" height="6.2"/>
	<rect x="6.2" y="2" fill="#5F95AC" width="7.3" height="2.2"/>
	<rect x="2.3" y="14.4" fill="#5F95AC" width="6.5" height="1.2"/>
	<rect x="2.3" y="16.9" fill="#5F95AC" width="6.5" height="1.2"/>
</g>
</svg>
