<?xml version="1.0" encoding="utf-8"?>
<!-- Generator: Adobe Illustrator 17.1.0, SVG Export Plug-In . SVG Version: 6.00 Build 0)  -->
<!DOCTYPE svg PUBLIC "-//W3C//DTD SVG 1.1//EN" "http://www.w3.org/Graphics/SVG/1.1/DTD/svg11.dtd">
<svg version="1.1" xmlns="http://www.w3.org/2000/svg" xmlns:xlink="http://www.w3.org/1999/xlink" x="0px" y="0px"
	 viewBox="0 0 900 295.5" enable-background="new 0 0 900 295.5" xml:space="preserve">
<g id="Layer_1">
</g>
<g id="Layer_2">
	<g>
		<g>
			<path fill="#4686C6" d="M284.6,173.4c1-0.1,1.7-0.2,2.5-0.2c8.8,0.1,17.6,0.2,26.4,0.5c3.3,0.1,6.6,0.5,9.7,1.5
				c6.2,1.9,8.9,6.4,8.6,12.8c-0.3,5-4.3,9.4-9.9,10.7c-2.3,0.5-4.6,0.9-7.8,1.5c2.1,0.6,3.5,1,4.8,1.4c6.6,2,8.7,7.6,10.7,13.3
				c1.1,3.1,2.1,6.3,3.7,9.1c3.3,5.7,6.1,5.6,9.2,1c3.6-5.2,6.6-11,9.3-16.8c5.3-11.6,10.2-23.3,15.3-35c0.2-0.5,0.5-0.9,1.1-2
				c1.3,2.7,2.4,5,3.4,7.3c6,13.5,11.8,27,17.9,40.4c1.4,3.1,4,5.7,6.1,8.6c0.3,0.5,0.5,1,0.9,1.8c-8.1,0-15.8,0-23.9,0
				c0.5-0.6,0.7-1.4,1.1-1.5c3-0.9,3.6-3.3,2.9-5.7c-1.5-4.8-3.5-9.4-5.5-14c-0.3-0.6-1.5-1.1-2.2-1.1c-4-0.1-8.1-0.1-12.1,0
				c-0.8,0-2,0.5-2.2,1.1c-1.5,4.3-3,8.6-3.9,13c-0.7,3,1.1,5.2,4,6.5c0.6,0.2,1.1,0.7,1.3,1.7c-11.5,0-23,0-34.8,0
				c-1.5-5.1-2.8-10.6-4.7-15.8c-1.2-3.3-2.9-6.5-4.8-9.5c-2-3.2-5.5-3.4-8.9-3c-0.5,0.1-1.3,0.9-1.3,1.3c0,6.4,0.1,12.8,0.4,19.2
				c0.1,3.4,1.8,6,5,7.6c-7.7,0-15.4,0-24,0c6.8-3.7,6-9.7,6.2-15.2c0.2-9.2,0.1-18.4,0.1-27.5C289.1,178.9,289.1,178.9,284.6,173.4
				z M305.8,176.1c-4.4,0-4.4,0-4.4,4.5c0,4.1-0.1,8.2,0,12.4c0.1,6.3-1.4,5.7,6,5.5c8.1-0.2,12.8-6.8,10.7-14.6
				C316.8,178.8,312.6,176.1,305.8,176.1z M369.6,204.4c-2.3-5.5-4.4-10.7-6.5-15.9c-0.3,0-0.5,0.1-0.8,0.1
				c-2,5.2-4.1,10.4-6.2,15.8C360.7,204.4,364.9,204.4,369.6,204.4z"/>
			<path fill="#4686C6" d="M60.5,229.3c-5.5,0-11.1,0-17,0c-1.1-3.8-2.1-7.9-3.4-11.9c-1.3-3.9-2.8-7.8-4.6-11.4
				c-2-3.9-5.4-5.7-9.8-4.9c-0.7,0.1-1.7,1-1.7,1.4c0.1,6.6,0.2,13.2,0.5,19.8c0.1,2.9,1.6,5.2,4.6,6.2c0.2,0.1,0.2,0.4,0.4,0.8
				c-7.8,0-15.5,0-23.2,0c0-0.1-0.1-0.4-0.1-0.5c4.9-2.7,5.2-7.5,5.3-12.1c0.2-11.2,0.1-22.4,0.1-33.6c0-3.6-0.7-7.1-4.3-9.7
				c0.8-0.1,1.6-0.2,2.4-0.2c8.8,0.1,17.6,0.2,26.4,0.5c3.2,0.1,6.4,0.5,9.5,1.4c6.1,1.8,9,6.3,8.7,12.7c-0.2,5.2-4,9.5-10,11
				c-2.3,0.6-4.6,0.9-7,1.8c1.4,0.4,2.7,0.7,4.1,1.1c5.3,1.6,7.9,5.6,9.7,10.5c0.8,2.2,1.5,4.5,2.3,6.7
				C54.8,222.8,56.2,227,60.5,229.3z M23.8,187.4C23.7,187.4,23.7,187.4,23.8,187.4c0,1.7,0,3.5,0,5.2c0,6.5,0,6.6,6.5,5.8
				c4.2-0.5,7.9-2,9.7-6.2c3.4-8-1.2-15.5-9.8-16.1c-1.4-0.1-2.8,0-4.1-0.1c-1.7-0.1-2.3,0.6-2.2,2.3
				C23.8,181.4,23.8,184.4,23.8,187.4z"/>
			<path fill="#4686C6" d="M478.6,200.8c0.5-11.7,5.2-22,17.1-26.6c16-6.2,34.5,2.6,37.1,22c1.2,9.4-0.2,18.2-6.6,25.4
				c-7.7,8.6-17.6,11-28.5,7.7c-10.9-3.3-16.8-11.2-18.5-22.4c-0.2-1.4-0.4-2.7-0.6-4.1C478.6,202.4,478.6,201.9,478.6,200.8z
				 M491.9,201.3c0.3,0,0.5,0.1,0.8,0.1c-0.2,6.8,0.3,13.6,3.3,19.8c1.9,4,4.8,7,9.6,7c5.4,0.1,9.3-3.1,11.4-9.3
				c2.9-8.4,2.7-17.1,2-25.8c-0.4-4.8-1.5-9.6-4.2-13.8c-4.1-6.2-12-6.8-16.8-1c-1.4,1.7-2.6,3.7-3.1,5.7
				C493.7,189.8,492.9,195.5,491.9,201.3z"/>
			<path fill="#4686C6" d="M278.3,201.4c-0.3,11.9-4.6,21.4-15.8,26.6c-16.9,7.8-36.9-2.6-38.5-22.6c-0.7-8.3,0.4-16.1,5.6-22.9
				c6.8-8.9,16.3-11.8,26.9-9.8c10.7,2,17.7,8.8,20.5,19.5C277.7,195.2,277.8,198.4,278.3,201.4z M237.5,201.4c0,1.6-0.2,3.2,0,4.7
				c0.9,4.8,1.5,9.8,3,14.4c1.7,5.3,5.9,7.9,10.8,7.8c5.2-0.2,8.2-3.5,9.9-7.9c1.4-3.6,2.2-7.6,2.6-11.4c1-8.2,0.7-16.5-1.7-24.5
				c-0.3-0.9-0.6-1.7-1-2.5c-2.2-4.3-5-7.6-10.5-7.5c-5.3,0.1-8.2,3.3-10.1,7.6C237.9,188.2,237.4,194.8,237.5,201.4z"/>
			<path fill="#4686C6" d="M100.3,190c0,6.1,0,12.8,0,20.1c-3.7-8.8-10.8-9.5-18.4-9.1c-0.7,0-1.8,0.9-1.8,1.3
				c0,5.7-0.3,11.4,0.4,17c0.7,5.4,3.8,7.3,9.3,6.9c7.2-0.6,12.4-4.7,17-9.7c2-2.1,3.7-4.5,6.1-6.5c-0.4,1.7-0.8,3.3-1.2,5
				c-1,4-2.3,7.9-3.1,11.9c-0.5,2.3-1.6,2.8-3.8,2.7c-10.6-0.3-21.3-0.5-31.9-0.6c-3.1,0-6.2,0.4-9.3,0.6c-0.6,0-1.2-0.1-1.8-0.2
				c0-0.4-0.1-0.7,0-0.7c5-2,5.7-6.5,5.7-10.8c0.2-11.9,0.1-23.9,0-35.8c0-3.4-0.9-6.5-4.7-8.1c0.6-0.5,0.8-0.7,1-0.7
				c12.9,0,25.8,0,38.8-0.1c1.7,0,2.7,0.4,3.1,2.2c0.7,3.7,1.6,7.3,2.4,11c0.1,0.5,0,1-0.1,2.3c-0.9-1.1-1.5-1.6-2.1-2.3
				c-6.2-7.8-14.2-11.3-24.1-10.1c-0.7,0.1-1.7,1.1-1.7,1.8c-0.1,6.2-0.1,12.5,0,18.7c0,0.6,0.9,1.7,1.4,1.8
				c4.2,0.3,8.7,0.7,12.3-1.8C96.3,194.9,98.3,192.1,100.3,190z"/>
			<path fill="#4686C6" d="M546.8,184.4c-0.1,0.8-0.2,1.5-0.2,2.3c0,8.6-0.3,17.3,0.1,25.9c0.2,3.9,1.4,7.9,2.8,11.6
				c0.7,1.8,2.7,3.1,4.4,4.9c-5.9,0-11.6,0-17.2,0c3.2-2.1,5.2-5.1,6.2-8.7c0.8-2.7,1.5-5.5,1.5-8.3c0.1-9.2,0-18.3-0.1-27.5
				c-0.1-4.4-1.2-8.4-5.7-10.7c0.7-0.1,1.3-0.2,2-0.2c4,0,8.1,0.1,12.1,0c1.9-0.1,3.2,0.5,4.4,2c8,9.5,16,18.9,24,28.3
				c0.7,0.9,1.6,1.7,2.5,2.6c0.3-0.5,0.6-0.7,0.6-0.9c-0.3-7.6-0.5-15.2-1.1-22.7c-0.3-3.6-2.5-6.6-5.6-9c5.4,0,10.8,0,16.2,0
				c0,0.2,0.1,0.5,0,0.5c-6,4.4-7.2,10.9-7.3,17.6c-0.2,12-0.1,24.1-0.1,36.1c0,0.9-0.5,1.8-0.8,2.7c-0.8-0.5-1.7-0.9-2.2-1.6
				c-11.5-14.4-22.9-28.9-34.3-43.3c-0.5-0.6-0.8-1.4-1.2-2.1C547.4,183.9,547.1,184.1,546.8,184.4z"/>
			<path fill="#4686C6" d="M120.5,210.6c2.1,3.9,3.7,8.3,6.5,11.9c4.6,6.2,12.8,7.6,18.9,3.8c3.8-2.3,4.9-6,4.8-10.1
				c-0.1-3.8-2-6.7-5.8-7.8c-4.5-1.4-9.1-2.6-13.7-3.9c-8.5-2.5-11.7-6.7-11.9-15.2c-0.2-8.8,5.5-13.7,12.1-15.7
				c9-2.8,17.7-1.2,26.4,1.7c0.6,0.2,1.5,1.5,1.3,2.1c-0.9,4.2-2,8.3-3.1,12.7c-1.3-3.1-2.2-6.1-3.7-8.7c-3.8-6.5-11-9-16.6-5.8
				c-3.8,2.2-5.2,5.8-4.9,10c0.2,3.8,2.7,5.7,6,6.6c4.5,1.4,9,2.6,13.4,3.8c6.3,1.8,11.2,5,11.9,12.1c0.8,7.7-1.8,14.1-8.6,18.3
				c-6.9,4.3-14.5,5-22.2,3.3c-4.3-0.9-8.4-2.4-12.6-3.7c-1.4-0.4-1.7-1.4-1.4-2.7C118.4,219,119.5,214.5,120.5,210.6z"/>
			<path fill="#4686C6" d="M67.7,120.6c-4.4,1.3-5,4.5-4.8,8.4c0.2,3.9-0.1,7.9,0.1,11.8c0.1,1.9-0.6,3.1-2.1,4.1
				c-4.9,3.3-10.4,4.8-16.2,5.7c-9.5,1.6-18.7,0.5-27.2-4.1C7.5,141,2.8,132.1,2.8,121c0-11.3,5.4-20.3,15.4-25.5
				c15.5-8.1,30.7-5.5,45.9,2.3c-1.3,3.3-2.5,6.2-3.9,9.7c-1.4-5.7-4.2-9.7-9-12c-13.2-6.7-30.5-3.4-35.5,16.2
				c-2.4,9.4-2.1,18.7,3.1,27.3c6.3,10.4,16.3,12.6,27,9.2c4.6-1.5,6.6-5.4,6.9-10c0.3-3.5,0.1-7,0-10.5c-0.1-3.1-1.8-5-5.2-5.9
				c-1.3-0.4-2.6-0.7-4.7-1.2C51.7,120.6,59.7,120.6,67.7,120.6z"/>
			<path fill="#4686C6" d="M451.5,150.2c-4.5,0-9.1,0.1-13.6-0.1c-0.7,0-1.5-0.9-1.9-1.5c-3.2-5.4-6.1-10.8-9.5-16.1
				c-1.6-2.5-3.5-4.9-5.7-6.9c-1-0.9-3.3-1.2-4.5-0.7c-1,0.5-1.8,2.5-1.8,3.9c-0.2,4.4-0.1,8.8-0.1,13.2c0,3.7,1.6,6.3,5.9,7.9
				c-7,0-13.3,0-19.7,0c5.3-3.2,4.8-8.6,4.8-13.7c0-13.4,0-26.8,0-40.2c0-3.2-0.3-6.3-4.7-7.7c4.9-1.2,9.2-2.3,13.8-3.5
				c0,13,0,25.7,0,39.2c3.3-2.8,6-5,8.7-7.3c2.5-2.1,4.9-4.1,7.3-6.2c3.1-2.8,3.2-4.2,0.5-7.4c5.9,0,11.8,0,17.6,0
				c-11.9,3-19.9,12-30.1,19.2c1.9,0.3,2.9,0.6,3.9,0.7c5.1,0.2,9.2,2.4,12.2,6.5c1.8,2.4,3.5,4.9,5.1,7.5
				C442.7,142.1,446.3,146.7,451.5,150.2z"/>
			<path fill="#4686C6" d="M431.1,229.1c-8.3,0-16.4,0-24.9,0c0.6-0.5,0.9-0.8,1.2-0.9c3.6-1.3,4.9-4.3,5-7.8
				c0.3-8.4,0.4-16.9,0.6-25.3c0.1-4.2,0.1-8.4,0-12.7c-0.2-6-3.9-8-8.8-4.4c-3.2,2.3-5.8,5.5-8.6,8.4c-0.8,0.8-1.4,1.7-2.1,2.6
				c-0.2-0.1-0.4-0.2-0.6-0.4c1.1-4.6,2.1-9.2,3.3-13.7c0.1-0.5,1.2-1.2,1.8-1.2c14.5-0.1,29-0.1,43.7-0.1c1.2,5,2.4,10,3.6,14.9
				c-0.2,0.1-0.4,0.2-0.7,0.3c-0.5-0.6-0.9-1.2-1.5-1.7c-2.6-2.8-5.2-5.6-8-8.3c-0.8-0.8-1.9-1.4-3-1.9c-4.1-1.7-6.7,0-6.7,4.5
				c0,12.6,0,25.1,0,37.7C425.4,223.3,426.3,224.7,431.1,229.1z"/>
			<path fill="#4686C6" d="M165.9,188.6c1.1-4.5,2.1-9,3.2-13.5c0.2-0.6,1.3-1.4,1.9-1.4c14.5-0.1,29-0.1,43.6-0.1
				c1.2,5.1,2.4,10,3.7,14.9c-0.2,0.1-0.4,0.2-0.6,0.4c-0.5-0.6-1.1-1.2-1.6-1.8c-2.7-2.8-5.4-5.7-8.2-8.4c-1-0.9-2.5-1.6-3.9-1.9
				c-3.5-0.9-5.5,0.7-5.5,4.4c-0.1,12.8-0.1,25.7,0,38.5c0,3.9,1.1,7.7,5.4,9.5c-8.1,0-16.2,0-24.3,0c6.6-2.3,6.1-8.2,6.3-13.2
				c0.3-11.1,0.2-22.2,0.1-33.3c-0.1-6.1-3.9-8.2-8.8-4.5c-3.3,2.5-6,5.8-9,8.8c-0.6,0.6-1,1.4-1.5,2.1
				C166.4,188.9,166.2,188.8,165.9,188.6z"/>
			<path fill="#4686C6" d="M216.7,149.6c-3.5,0-6.2,0.2-8.9-0.1c-0.8-0.1-2-1.2-2.3-2.2c-0.7-2.1-1.1-4.3-1.7-7
				c-0.7,1.1-1.3,1.8-1.7,2.6c-3.6,6.1-9.3,8.1-15.9,7.7c-3.4-0.2-6.9-1.1-10-2.5c-5.1-2.1-7.5-6.4-7.6-11.8
				c-0.1-5.6,3.3-9.1,8.2-11.3c7.6-3.4,15.7-3.6,23.7-3.6c2.7,0,3.4-0.9,3.3-3.4c-0.2-12.1-7.4-16-18-14.4c-6.3,0.9-10,5-12.3,11.2
				c-0.8-2.7-1.6-4.9-2.1-7.1c-0.1-0.5,0.6-1.6,1.2-1.9c7-3.2,14.4-4.2,22-3.5c3.4,0.3,6.8,1.3,10,2.5c5.6,2.2,8,6.8,8.1,12.6
				c0.1,8,0.1,16,0,24C212.7,144.6,212.9,147.5,216.7,149.6z M203.8,128.3c0-1.1,0.2-2.5-0.1-3.8c-0.1-0.6-1-1.6-1.5-1.6
				c-4.6,0.3-9.5,0-13.8,1.2c-8.8,2.6-10.8,9.3-9.4,16.7c0.8,4.3,4.9,7.7,9.1,8.1c5.4,0.6,9.7-1.4,12.5-6.1
				C203.1,138.4,203.9,133.6,203.8,128.3z"/>
			<path fill="#4686C6" d="M393.2,149.7c-2.4,0-4.8-0.1-7.2,0c-2,0.1-2.9-0.7-3.3-2.5c-0.5-2.1-1-4.2-1.5-6.7
				c-0.6,0.7-1,1.1-1.3,1.6c-3.3,5.9-8.5,8.5-15,8.6c-4.2,0-8.4-0.7-12.2-2.8c-4.5-2.5-6.8-6.4-6.8-11.5c-0.1-5,2.4-8.9,6.9-10.6
				c4.6-1.8,9.4-3,14.2-3.8c3.8-0.7,7.7-0.5,11.5-0.5c1.9,0,2.5-0.7,2.5-2.6c0-6.1-1.1-11.9-7.4-14.4c-7.1-2.8-18.1-1.8-22.1,8.5
				c-0.2,0.4-0.3,0.8-0.7,1.8c-0.8-2.7-1.6-4.8-2.1-7.1c-0.1-0.6,0.6-1.7,1.2-2c10.4-4.2,20.9-5.3,31.6-1.2
				c5.8,2.2,8.5,6.8,8.5,12.9c0.1,8.3,0.1,16.5,0,24.8C390.1,145.2,390.7,147.7,393.2,149.7z M375.2,122.3c-3.1,0.5-6.4,0.7-9.4,1.6
				c-8.6,2.7-11,9.3-9.4,17c0.9,4.3,4.9,7.5,9.2,8c5.6,0.6,9.9-1.6,12.6-6.5c2.4-4.2,3.1-8.9,3-13.7
				C381.1,122.8,381.1,122.8,375.2,122.3z"/>
			<path fill="#4686C6" d="M284,149.7c4.2-2.1,5.1-5.9,5.1-10c0-12.9-0.1-25.9,0-38.8c0-3.6-0.6-6.8-5-8.7c6.9,0,12.9,0,19.3,0
				c-5.2,2.7-4.1,7.6-4.2,12.2c0,11.5,0,22.9,0,34.4c0,6.6,2.5,8.8,8.9,9.1c9.2,0.4,17.9-0.8,25.6-6.4c2.2-1.6,4.1-3.6,6.6-5.8
				c-1.3,4.5-2.4,8.8-3.7,12.9c-0.2,0.5-1.6,1-2.5,1C317.4,149.7,300.7,149.7,284,149.7z"/>
			<path fill="#4686C6" d="M453.1,173.8c5.7,0,12,0,18.4,0c-3.9,2.6-3.3,6.6-3.3,10.1c-0.1,12,0.1,24,0.3,36.1c0.1,3.5,1,6.7,5,8.2
				c-0.2,0.2-0.3,0.4-0.5,0.5c-7.6,0-15.2,0-22.8,0c5.5-2.7,5.3-7.6,5.3-12.4c0-12.1,0.1-24.2-0.1-36.3
				C455.3,178,453.9,176,453.1,173.8z"/>
			<path fill="#4686C6" d="M553.6,105.5c-0.8,2.5-1.6,4.7-2.4,7.2c-5-8.3-11.7-11-20.6-8.6c-3.1,0.8-5.5,2.5-6.9,5.5
				c-2.8,6,0,11.2,6.8,12.3c5.2,0.9,10.5,1.3,15.7,2.2c6.7,1.1,9.6,4,10.5,9.8c0.8,5.2-2.1,10.4-7.2,13.1c-5.9,3.1-12.4,4-18.9,3.7
				c-5.6-0.3-11.2-1.6-16.8-2.5c-2.2-0.3-2.7-1.5-2.1-3.5c0.5-1.7,1-3.5,1.6-5.8c2.5,6.6,7.7,8.9,13.5,10.1
				c5.4,1.1,10.8,1.1,15.8-1.6c4.2-2.3,6.1-6.2,5.2-10.8c-0.6-3.2-4.3-5.5-9.3-6c-4.9-0.6-9.8-1.1-14.6-2.2c-4.4-1-8.2-3.3-9.6-8.1
				c-1.9-6.5,1.5-12.9,8.8-15.5C533.3,100.9,543.4,101.7,553.6,105.5z"/>
			<path fill="#4686C6" d="M503.4,131.9c-0.2,0.6-0.4,1.2-0.7,1.7c-2.3,3.6-4.2,7.7-7.2,10.5c-8.1,7.6-24.3,7.9-28.8-7.4
				c-1.3-4.5-1-9.4-1.5-14.1c-0.2-2,0.6-2.7,2.6-2.7c7.3,0.1,14.7,0,22,0c4.5,0,9,0,13.6,0c-0.5-5.3-2.8-9.4-6.7-12.4
				c-6.1-4.7-13-6.2-20.7-4.9c-18.9,3.2-25.9,22.6-17.2,36.5c5.6,9,14.4,11.9,24.6,11.3c9.9-0.7,16.4-6.1,20-15.1
				c0.4-1,0.5-2.2,0.8-3.3C503.9,132,503.6,131.9,503.4,131.9z M473.4,104.8c4.7-2.5,9.7-2.1,14.1,0.8c4.3,2.9,5.6,7.4,5.3,12.7
				c-9.1,0-18,0-27.2,0C466.3,112.6,468.3,107.6,473.4,104.8z"/>
			<path fill="#4686C6" d="M159.5,119.9c-11.3,0-22.4,0-33.5,0c-0.6,0-1.3,0.1-1.9,0c-2.1-0.3-3,0.6-2.8,2.8
				c0.5,4.7,0.2,9.6,1.5,14.1c4.6,15.2,20.8,14.9,28.9,7.2c3-2.9,4.8-7,7.2-10.6c0.3-0.5,0.5-1,0.9-1.8c1.5,6.5-7.9,17-16.8,18.5
				c-14.5,2.5-28.3-4.1-31.2-18.6c-2.9-14.7,5.8-27.6,23.4-29.3C145.6,101.3,158.5,107.5,159.5,119.9z M149.1,118.4
				c0.3-5.5-1.1-10.1-5.6-13c-4.7-2.9-9.8-3.2-14.5-0.1c-4.6,3-6.5,7.6-7,13.1C131.1,118.4,139.9,118.4,149.1,118.4z"/>
			<path fill="#4686C6" d="M77,106.2c4.2-1,8.2-2,12.4-3.1c0,3.7,0,7.3,0,11c2.6-3,4.8-5.9,7.4-8.3c2.7-2.6,6.3-3.5,10.5-3.8
				c-1.2,2.9-2.2,5.6-3.3,8.3c-4.3-1.2-8.5-1.9-11.2,2.5c-1.4,2.3-2.6,5-2.8,7.6c-0.4,7.2-0.2,14.5-0.1,21.8c0.1,4,1.2,5.5,5,7.6
				c-6.2,0-12.7,0-19.4,0c4.9-1.4,5.4-5.1,5.4-9.3c-0.1-9.1,0-18.2,0-27.3C80.9,110.2,80.3,107.6,77,106.2z"/>
			<path fill="#4686C6" d="M239.1,105.3c3.4,0,6.3,0,9.3,0c0.5,1.9-0.1,2.6-1.8,2.5c-0.3,0-0.5,0-0.8,0c-6.5,0.1-6.5,0.1-6.5,6.4
				c0,7.9,0,15.8,0,23.7c0,5.6,1.4,8.4,5.9,11.8c-3.5,0-6.8,0.1-10,0c-2.4-0.1-3.9-1.6-4.4-3.8c-0.3-1.4-0.5-2.9-0.5-4.3
				c0-10.1-0.1-20.2,0-30.3c0-2.6-0.6-3.8-3.3-3.4c-1,0.1-1.9,0-3.2-0.4c7.1-2.8,11.6-8,15.3-14.4
				C239.1,96.9,239.1,100.9,239.1,105.3z"/>
		</g>
		<path fill="#4686C6" d="M514.2,73.5c0,0,23.9-14.1,29.1-21.4c0,0,10.2-8.6,20.3-9.1c0,0,27.1-5.6,28.4-20.8c0,0,8.5-4.1,11.4-3.5
			c0,0,1.1,1.4,0,2.3c0,0-5.9,7.3-1.4,5.6c0,0,4-3.7,4-8c0,0,3.8-3.8,3.8-5.8c0,0,1.5-4.1,4.1-2c0,0,1.6,2.4,0,5
			c0,0-12.2,11.7-4,6.6c0,0,5.2-4.6,8.2-4.5c0,0,3.2-3.7,7.9-2.6c0,0,4.5-0.5-0.5-3.4c0,0-3.4-0.1-4.1,0.4c0,0-5.8,0.4-3.8-3.4
			c0,0-0.5-2.9,4.9-2.2c0,0,11.7,3.3,15.6,9.3l8.8,0.2c0,0,2.2,2.1,3.2,0.1c0,0,7.5-2.2,10.4,9.1c0,0,2.4,30.1,19.8,23.7l10.8,0.6
			c0,0-1.1,7.2-4.4,8.9c0,0,0.1,4.8,1.2,5.2c0,0,8.1,7.9,8.3,9.8c0,0-4.3,4.7-3.5,6.8l-1.1,1c0,0-2,3.4,0.3,3.5c0,0,7.8,1.1,8.2,3.9
			v1.2h-4.2c0,0-1,4.9-0.4,5.4c0,0,1.8,1.1,0.7,2.4c0,0-3.4,1.3-1.6,3.2c0,0,0.6,2.5,3.4,1.2l3.7-0.4l1.3-0.8l1.2,0.4
			c0,0,3,0.7,1.2,3.9c0,0-1.1,3.4,1.5,3.9l9.9,1.5c0,0,1.4,1.1,1.4,2.2c0,0,9.9-0.3,11.3,3.3c0,0,2.1,1,2.7,0c0,0,3.2-2.2,6.3-1.1
			c3.2,1,2.8,2.9,4.7,1.6c0,0,5.6-1.3,7.9,2.9h9.8c0,0,9.9,4.9,11.2,6.1c0,0,10-3.4,16.2,9.1c0,0,15.3,17.8,14.6,27.4
			c0,0-2.2,6-4,6.8c0,0,2.8-0.1,4,1.7c0,0,0.6,8.1-4.2,8.3c0,0-3.2-1.3-4.2-3.4h-3.1c0,0-4.2-3.3-4.4-5.2l-4.7-0.7
			c0,0-6.6-8.1-9.3-10.1c0,0-3.3,0.4-1.6-4.9l-1.8-0.3l0.2-2.3l1-0.3v-1.5c0,0-7.3-0.3-7.7-0.9c0,0-2.7,0.5-0.9,2.8
			c0,0,12.3,10.4,7.8,21.4c0,0-3.1,3.7-2.5,5.3l-2.9,0.7c0,0-3.3,5.2-3.2,7.6c-0.2,0.5-3.2,2.7-3.1,3.4v22c0,0-1.1,9.2-7.8,7.9
			c0,0-1.3,8.4-9.4,6.6c0,0-3.5,3-2.9,7.4c0,0-0.8,6.4-5.8,7.3c0,0,2.8,2.4,2.5,4.4l3.6,0.6c0,0,1.2,6.4-2.7,5.9c0,0-6.2,2-9.8-0.9
			c0,0-3.2,1.4-2.8,4.9c0,0-2.5,2.8-2.4,4.7c0,0,3.3,0.1,3.4,2.5c0,0,2.4,1.7,3.9-0.8c0,0,6.3-4.1,6.3,2.9c0,0,1.9,1.6,1.3-3.8
			c0,0,5.5-7.4,14-6.3c0,0,15.4-22.4,35.2-10.1l3.3-0.4c0,0,1.1-3.9,3.5-3.8c0,0,2.3-2.5,2.3-3.6l10-0.1c0,0,0.8-2.2,3.2-2.5
			c0,0,2.3,1.2,5.1,0c0,0,3.3-0.8,4.2,0.6l1.4-0.1v-0.6l9.5-0.5c0,0-3.3-3.9-3.1-8l-0.4-4.9c0,0-4.1,0.6-5,2.9c0,0-9.7,0.5-13-3.7
			c0,0,1.8-10.3,11.1-12.4c0,0,7.3-9.2,19.1-9.1c0,0,4.4-0.2,5.5,0.1c0,0,11-5.6,22-1.7l0.9,0.5c0,0,1-2.1,4.8-0.9
			c0,0,1.1,2.3,3.5,3.1c0,0,2.1-2.9,1.4-7.1c0,0,5.9-3.7,7.2-5.1c0.2,0,8.5-1.1,8.2-1.1c-4.3,0.6,6.8-5.3,9.7-5.1
			c0,0,3.1,2.7-1.5,4.4c0,0-3.7,1.9-3.6,3.1c0,0-4.7,2.1-0.3,3.1c0,0,10.1,2.4,0.7,7c0,0-0.3,2.4,0.8,2.7c0,0,0.8,8.3,0.4,9.2
			c0,0-3.5,1-5.4,0.3c0,0-7.7,5.9-8.2,7.8c0,0-21.1,3.7-29.6-2.1c0,0-25.8,1-26.3,5.2c0,0-0.4,6.5,2.2,7.2c0,0,3,7.8,0,10.3
			c0,0-4.9,3.8-4.4,5.6c0,0-37.2,26.5-57.9,27.9c0,0-10.9,15.7-19.4,7.4c0,0-12.3,9.4-16.2,1.6c0,0-11.8-3.4-16.4-9l-4.2-0.2
			c0,0-0.7-5.6,6.3-10.1c0,0,2.3-5.3,3.8-6.2c0,0,0-6.8,5.9-8c0,0-1.3-7.8,6.7-10.4c0,0,2.5-1.1,2.6-2.7c0,0,3.5-15.1,0.3-21.3V200
			c0,0-3.9-7.9-7.9-9.7c0,0-8.3,0.2-16.8,14.5c0,0-9,1.8-8.7-6.2c0,0-1.9-8.4,6.3-7.4c0,0,4.3-2.3,4.4-8.4c0,0-0.5-1.7,3.8-1.1
			c0,0,5.2-18.9,2.1-21.4c0,0-5.9-7.2,1.4-5.7c0,0-0.6-9.8-5.6-10.3l-2.5-2.5l-3.1-0.5l-1.1-2.1l-4.4-0.4c0,0-2.3-5.6-4.8-6.4
			l-4.9-0.4c0,0-3.4-3.6-7.2-5c0,0-4.4,1.9-4.2,4c0,0-6.6-0.3-2.9,6.4l0.1,2.5c0,0-9.1,3-9,6.2l-0.2,8.8c0,0-3.4,4.8-3.3,6.6
			c0.1,1.8-6.1,0.9-4-5.3c2.1-6.1,1.7-7.9,3.5-9.3s-0.9-1.8-3.3,0.9c-2.4,2.7-0.9,8.5-10.6,6.9l-0.3,5.6c0,0-5.2,1.9-4.2,3.9
			c0,0-1.3,15.9-9,20.4c0,0,4.1,5.4-1.1,13.3c0,0-0.3,7.9,1.1,9.9c0,0,8.5,32.7-6.8,46.3c0,0-16,22.6-26,11.9c0,0-3-1.6-3.2-9.1
			c0,0-0.7-7.9-3.4-9.5c0,0-5-5.6,0.9-10.3c0,0-1.1-7.9,1-9.4c0,0,1.5-2.4-1.1-5.2c0,0-1.9-18.1,6.8-27.2c0,0-2.6-12.6,6.9-18
			c0,0-2-10.2,6.1-17.6c0,0,8-15.1,11.4-17.1c0,0,1.2-4.2-2.7-2.3c0,0-7.7,13.4-14.5,15.2c0,0-3.3,7.9-9.9,8.4c0,0-0.7-2.5,0.2-6.3
			c0,0,13.5-19.3,19.9-24c0,0,1.5-7.9,7.1-8.6c0,0-0.1-4.3,1.9-4c0,0,1.4,1.3,0.8,3.9l2.4,0.2c0,0,0.7-4.6,4.3-5.4
			c0,0,3.2-1.3,3.2,1.5c0,0-1.1,3.1-3.2,4.1c0,0,5.5-2.6,8.3-2.7c0,0-1.4-7.3,7-4.5c0,0,6.4-0.7,8.4,1.1c0,0,3.5-8.8,9.9-3.5
			c0,0,9.5,1.3,11.5,8.5c0,0,1.5,2,4.2-6.1c0,0,5.6,0.3,9.5,4l7.9-0.1l0.1-1.6c0,0-7.7-4.5-5.7-13c0,0-1.5-2.5-7.9-2.6
			c0,0-3.6-4.1-4.5-1.3c0,0-3.8,0.1-5.1-1.4l-2.2-0.2c0,0-1.8-8.3,1.8-9.9l-6.4-0.4c0,0-4.6,4.1-10,1.8c0,0-12.8-2.1-13.7,1.2
			c0,0-7.9,1.5-8.8,5.2c0,0-8.6,1.3-8.9-4.5l-8.3,0.3c0,0-5.5-4.9-5.8-11.3c0,0-0.3-1.3-2.1-1.2c0,0-3-4.5-6.4-2.8
			c0,0-3.5-4-7.2-1.3c0,0-6.2,9-6.2,1.8c0,0,6.5-15.7,21.4-17.8c0,0,3.4-4.2-9.2-2.8c0,0-6.6,1.1-8.9,4.2c0,0-5.8,5.6-10.5,5.4
			c0,0,0.9,5.6-7,3.6c0,0-4.3,3.2-4.4,4.3l-11.9-0.3c0,0-8.7,7.1-16.2,6.9c0,0-3.8-2.1-5.4-4.7l-5.7,1.2c0,0,1.8-5.6,4.7-7.5
			c0,0,2.1-3.5-2.8-3.8c0,0-4.7,0.6-8,1.9C537.8,71.6,519.8,77.8,514.2,73.5z"/>
	</g>
</g>
</svg>
