<?xml version="1.0" encoding="utf-8"?>
<!-- Generator: Adobe Illustrator 17.0.0, SVG Export Plug-In . SVG Version: 6.00 Build 0)  -->
<!DOCTYPE svg PUBLIC "-//W3C//DTD SVG 1.1//EN" "http://www.w3.org/Graphics/SVG/1.1/DTD/svg11.dtd">
<svg version="1.1" id="Capa_1" xmlns="http://www.w3.org/2000/svg" xmlns:xlink="http://www.w3.org/1999/xlink" x="0px" y="0px"
	 width="64px" height="64px" viewBox="0 0 64 64" enable-background="new 0 0 64 64" xml:space="preserve">
<path d="M47.622,14.759c-1.2-1.142-1.792-1.316-1.3-0.481c0.302,0.513,0.555,1.039,0.757,1.58c0.543,1.457,0.815,2.814,0.815,4.074
	c0,2.087-0.272,3.803-0.815,5.15c-0.545,1.347-1.217,2.499-2.021,3.454c-0.805,0.957-1.694,1.772-2.672,2.445
	c-0.978,0.675-1.903,1.347-2.771,2.021c-0.87,0.674-1.641,1.445-2.315,2.314c-0.353,0.455-0.637,0.97-0.853,1.544
	c-0.344,0.915-0.419,2.27-0.419,2.954s-1.97,1.238-4.399,1.238s-4.399-0.657-4.399-1.467v-1.467
	c0.131-1.867,0.488-3.432,1.075-4.693c0.587-1.26,1.271-2.336,2.053-3.227c0.783-0.889,1.607-1.662,2.477-2.314
	c0.868-0.652,1.673-1.303,2.412-1.956c0.739-0.652,1.337-1.369,1.793-2.151c0.456-0.782,0.661-1.759,0.619-2.933
	c0-1.999-0.488-3.476-1.466-4.433c-0.978-0.956-2.338-1.434-4.074-1.434c-1.174,0-2.184,0.228-3.033,0.684
	c-0.847,0.456-1.542,1.065-2.085,1.826c-0.545,0.76-0.946,1.651-1.206,2.672c-0.134,0.525-0.234,1.07-0.299,1.635
	c-0.105,0.912-2.237,1.658-4.883,1.658s-4.8-1.489-4.475-3.282c0.201-1.109,0.498-2.166,0.89-3.171
	c0.759-1.956,1.825-3.651,3.193-5.085c0.047-0.05,0.098-0.096,0.148-0.142c0.084-0.076-1.022,0.527-2.327,1.548
	c-5.302,4.148-8.711,10.602-8.711,17.856c0,10.014,6.496,18.507,15.503,21.505c1.572,0.523,2.256,0.143,1.852-0.834
	c-0.238-0.576-0.37-1.205-0.37-1.866c0-2.772,2.291-5.019,5.116-5.019s5.116,2.247,5.116,5.019c0,0.716-0.155,1.395-0.434,2.009
	c-0.472,1.042,0.127,1.51,1.728,1.084c9.685-2.577,16.822-11.402,16.822-21.899C54.667,24.714,51.961,18.887,47.622,14.759z"/>
</svg>
