<?xml version="1.0" encoding="utf-8"?>
<!-- Generator: Adobe Illustrator 17.1.0, SVG Export Plug-In . SVG Version: 6.00 Build 0)  -->
<!DOCTYPE svg PUBLIC "-//W3C//DTD SVG 1.1//EN" "http://www.w3.org/Graphics/SVG/1.1/DTD/svg11.dtd">
<svg version="1.1" id="Layer_1" xmlns="http://www.w3.org/2000/svg" xmlns:xlink="http://www.w3.org/1999/xlink" x="0px" y="0px"
	 viewBox="342.8 205.9 257.2 186.3" enable-background="new 342.8 205.9 257.2 186.3" xml:space="preserve">
<g id="Layer_2">
	<g>
		<linearGradient id="SVGID_1_" gradientUnits="userSpaceOnUse" x1="342.8" y1="299.0622" x2="600.2145" y2="299.0622">
			<stop  offset="0" style="stop-color:#FFFFFF;stop-opacity:0.5"/>
			<stop  offset="1" style="stop-color:#FFFFFF"/>
		</linearGradient>
		<path fill="url(#SVGID_1_)" d="M342.8,250.5c0,0,15.9-9.4,19.4-14.3c0,0,6.8-5.7,13.5-6.1c0,0,18.1-3.7,18.9-13.9
			c0,0,5.7-2.7,7.6-2.3c0,0,0.7,0.9,0,1.5c0,0-3.9,4.9-0.9,3.7c0,0,2.7-2.5,2.7-5.3c0,0,2.5-2.5,2.5-3.9c0,0,1-2.7,2.7-1.3
			c0,0,1.1,1.6,0,3.3c0,0-8.1,7.8-2.7,4.4c0,0,3.5-3.1,5.5-3c0,0,2.1-2.5,5.3-1.7c0,0,3-0.3-0.3-2.3c0,0-2.3-0.1-2.7,0.3
			c0,0-3.9,0.3-2.5-2.3c0,0-0.3-1.9,3.3-1.5c0,0,7.8,2.2,10.4,6.2l5.9,0.1c0,0,1.5,1.4,2.1,0.1c0,0,5-1.5,6.9,6.1
			c0,0,1.6,20.1,13.2,15.8l7.2,0.4c0,0-0.7,4.8-2.9,5.9c0,0,0.1,3.2,0.8,3.5c0,0,5.4,5.3,5.5,6.5c0,0-2.9,3.1-2.3,4.5l-0.7,0.7
			c0,0-1.3,2.3,0.2,2.3c0,0,5.2,0.7,5.5,2.6v0.8h-2.8c0,0-0.7,3.3-0.3,3.6c0,0,1.2,0.7,0.5,1.6c0,0-2.3,0.9-1.1,2.1
			c0,0,0.4,1.7,2.3,0.8l2.5-0.3l0.9-0.5l0.8,0.3c0,0,2,0.5,0.8,2.6c0,0-0.7,2.3,1,2.6l6.6,1c0,0,0.9,0.7,0.9,1.5
			c0,0,6.6-0.2,7.5,2.2c0,0,1.4,0.7,1.8,0c0,0,2.1-1.5,4.2-0.7c2.1,0.7,1.9,1.9,3.1,1.1c0,0,3.7-0.9,5.3,1.9h6.5
			c0,0,6.6,3.3,7.5,4.1c0,0,6.7-2.3,10.8,6.1c0,0,10.2,11.9,9.7,18.3c0,0-1.5,4-2.7,4.5c0,0,1.9-0.1,2.7,1.1c0,0,0.4,5.4-2.8,5.5
			c0,0-2.1-0.9-2.8-2.3h-2.1c0,0-2.8-2.2-2.9-3.5l-3.1-0.5c0,0-4.4-5.4-6.2-6.7c0,0-2.2,0.3-1.1-3.3l-1.2-0.2l0.1-1.5l0.7-0.2v-1
			c0,0-4.9-0.2-5.1-0.6c0,0-1.8,0.3-0.6,1.9c0,0,8.2,6.9,5.2,14.3c0,0-2.1,2.5-1.7,3.5l-1.9,0.5c0,0-2.2,3.5-2.1,5.1
			c-0.1,0.3-2.1,1.8-2.1,2.3v14.7c0,0-0.7,6.1-5.2,5.3c0,0-0.9,5.6-6.3,4.4c0,0-2.3,2-1.9,4.9c0,0-0.5,4.3-3.9,4.9
			c0,0,1.9,1.6,1.7,2.9l2.4,0.4c0,0,0.8,4.3-1.8,3.9c0,0-4.1,1.3-6.5-0.6c0,0-2.1,0.9-1.9,3.3c0,0-1.7,1.9-1.6,3.1
			c0,0,2.2,0.1,2.3,1.7c0,0,1.6,1.1,2.6-0.5c0,0,4.2-2.7,4.2,1.9c0,0,1.3,1.1,0.9-2.5c0,0,3.7-4.9,9.3-4.2c0,0,10.3-14.9,23.5-6.7
			l2.2-0.3c0,0,0.7-2.6,2.3-2.5c0,0,1.5-1.7,1.5-2.4l6.7-0.1c0,0,0.5-1.5,2.1-1.7c0,0,1.5,0.8,3.4,0c0,0,2.2-0.5,2.8,0.4l0.9-0.1
			v-0.4l6.3-0.3c0,0-2.2-2.6-2.1-5.3l-0.3-3.3c0,0-2.7,0.4-3.3,1.9c0,0-6.5,0.3-8.7-2.5c0,0,1.2-6.9,7.4-8.3c0,0,4.9-6.1,12.7-6.1
			c0,0,2.9-0.1,3.7,0.1c0,0,7.3-3.7,14.7-1.1l0.6,0.3c0,0,0.7-1.4,3.2-0.6c0,0,0.7,1.5,2.3,2.1c0,0,1.4-1.9,0.9-4.7
			c0,0,3.9-2.5,4.8-3.4c0.1,0,5.7-0.7,5.5-0.7c-2.9,0.4,4.5-3.5,6.5-3.4c0,0,2.1,1.8-1,2.9c0,0-2.5,1.3-2.4,2.1c0,0-3.1,1.4-0.2,2.1
			c0,0,6.7,1.6,0.5,4.7c0,0-0.2,1.6,0.5,1.8c0,0,0.5,5.5,0.3,6.1c0,0-2.3,0.7-3.6,0.2c0,0-5.1,3.9-5.5,5.2c0,0-14.1,2.5-19.7-1.4
			c0,0-17.2,0.7-17.5,3.5c0,0-0.3,4.3,1.5,4.8c0,0,2,5.2,0,6.9c0,0-3.3,2.5-2.9,3.7c0,0-24.8,17.7-38.6,18.6c0,0-7.3,10.5-12.9,4.9
			c0,0-8.2,6.3-10.8,1.1c0,0-7.9-2.3-10.9-6l-2.8-0.1c0,0-0.5-3.7,4.2-6.7c0,0,1.5-3.5,2.5-4.1c0,0,0-4.5,3.9-5.3
			c0,0-0.9-5.2,4.5-6.9c0,0,1.7-0.7,1.7-1.8c0,0,2.3-10.1,0.2-14.2v-10.1c0,0-2.6-5.3-5.3-6.5c0,0-5.5,0.1-11.2,9.7
			c0,0-6,1.2-5.8-4.1c0,0-1.3-5.6,4.2-4.9c0,0,2.9-1.5,2.9-5.6c0,0-0.3-1.1,2.5-0.7c0,0,3.5-12.6,1.4-14.3c0,0-3.9-4.8,0.9-3.8
			c0,0-0.4-6.5-3.7-6.9l-1.7-1.7l-2.1-0.3l-0.7-1.4L469,294c0,0-1.5-3.7-3.2-4.3l-3.3-0.3c0,0-2.3-2.4-4.8-3.3c0,0-2.9,1.3-2.8,2.7
			c0,0-4.4-0.2-1.9,4.3l0.1,1.7c0,0-6.1,2-6,4.1l-0.1,5.9c0,0-2.3,3.2-2.2,4.4c0.1,1.2-4.1,0.6-2.7-3.5c1.4-4.1,1.1-5.3,2.3-6.2
			s-0.6-1.2-2.2,0.6c-1.6,1.8-0.6,5.7-7.1,4.6l-0.2,3.7c0,0-3.5,1.3-2.8,2.6c0,0-0.9,10.6-6,13.6c0,0,2.7,3.6-0.7,8.9
			c0,0-0.2,5.3,0.7,6.6c0,0,5.7,21.8-4.5,30.9c0,0-10.7,15.1-17.3,7.9c0,0-2-1.1-2.1-6.1c0,0-0.5-5.3-2.3-6.3c0,0-3.3-3.7,0.6-6.9
			c0,0-0.7-5.3,0.7-6.3c0,0,1-1.6-0.7-3.5c0,0-1.3-12.1,4.5-18.1c0,0-1.7-8.4,4.6-12c0,0-1.3-6.8,4.1-11.7c0,0,5.3-10.1,7.6-11.4
			c0,0,0.8-2.8-1.8-1.5c0,0-5.1,8.9-9.7,10.1c0,0-2.2,5.3-6.6,5.6c0,0-0.5-1.7,0.1-4.2c0,0,9-12.9,13.3-16c0,0,1-5.3,4.7-5.7
			c0,0-0.1-2.9,1.3-2.7c0,0,0.9,0.9,0.5,2.6l1.6,0.1c0,0,0.5-3.1,2.9-3.6c0,0,2.1-0.9,2.1,1c0,0-0.7,2.1-2.1,2.7
			c0,0,3.7-1.7,5.5-1.8c0,0-0.9-4.9,4.7-3c0,0,4.3-0.5,5.6,0.7c0,0,2.3-5.9,6.6-2.3c0,0,6.3,0.9,7.7,5.7c0,0,1,1.3,2.8-4.1
			c0,0,3.7,0.2,6.3,2.7l5.3-0.1l0.1-1.1c0,0-5.1-3-3.8-8.7c0,0-1-1.7-5.3-1.7c0,0-2.4-2.7-3-0.9c0,0-2.5,0.1-3.4-0.9l-1.5-0.1
			c0,0-1.2-5.5,1.2-6.6l-4.3-0.3c0,0-3.1,2.7-6.7,1.2c0,0-8.5-1.4-9.1,0.8c0,0-5.3,1-5.9,3.5c0,0-5.7,0.9-5.9-3l-5.5,0.2
			c0,0-3.7-3.3-3.9-7.5c0,0-0.2-0.9-1.4-0.8c0,0-2-3-4.3-1.9c0,0-2.3-2.7-4.8-0.9c0,0-4.1,6-4.1,1.2c0,0,4.3-10.5,14.3-11.9
			c0,0,2.3-2.8-6.1-1.9c0,0-4.4,0.7-5.9,2.8c0,0-3.9,3.7-7,3.6c0,0,0.6,3.7-4.7,2.4c0,0-2.9,2.1-2.9,2.9l-7.9-0.2
			c0,0-5.8,4.7-10.8,4.6c0,0-2.5-1.4-3.6-3.1l-3.8,0.8c0,0,1.2-3.7,3.1-5c0,0,1.4-2.3-1.9-2.5c0,0-3.1,0.4-5.3,1.3
			C358.5,249.2,346.5,253.4,342.8,250.5z"/>
	</g>
</g>
</svg>
