<?xml version="1.0" encoding="utf-8"?>
<!-- Generator: Adobe Illustrator 17.1.0, SVG Export Plug-In . SVG Version: 6.00 Build 0)  -->
<!DOCTYPE svg PUBLIC "-//W3C//DTD SVG 1.1//EN" "http://www.w3.org/Graphics/SVG/1.1/DTD/svg11.dtd">
<svg version="1.1" id="Capa_1" xmlns="http://www.w3.org/2000/svg" xmlns:xlink="http://www.w3.org/1999/xlink" x="0px" y="0px"
	 viewBox="0 0 600 600" enable-background="new 0 0 600 600" xml:space="preserve">
<g>
	<g>
		<path fill="#003366" d="M545.5,43.7V0H16.3v553.7c0,1.5,1.2,2.7,2.7,2.7l0,0c5.5,19.1,19.1,43.7,51.8,43.7h512.7V43.7H545.5z
			 M510,32.7c0,8.2,0,49.1,0,103.7H49.1c0-54.5,0-95.5,0-103.7C79.1,32.7,480,32.7,510,32.7z M49.1,160.9H510c0,139.1,0,340.9,0,360
			c-30,0-430.9,0-460.9,0C49.1,501.8,49.1,300,49.1,160.9z M550.9,567.3c-30,0-477.3,0-477.3,0c-10.9,0-16.3-5.5-19.1-10.9h490.9
			V79.1c2.7,0,5.5,0,5.5,0C550.9,109.1,550.9,537.3,550.9,567.3z"/>
		<rect x="300" y="190.9" fill="#003366" width="169.1" height="32.7"/>
		<rect x="300" y="259.1" fill="#003366" width="169.1" height="32.7"/>
		<rect x="300" y="327.3" fill="#003366" width="169.1" height="32.7"/>
		<rect x="300" y="390" fill="#003366" width="169.1" height="32.7"/>
		<rect x="300" y="458.2" fill="#003366" width="169.1" height="32.7"/>
		<rect x="81.8" y="190.9" fill="#003366" width="171.8" height="169.1"/>
		<rect x="185.5" y="54.5" fill="#003366" width="199.1" height="60"/>
		<rect x="79.1" y="392.7" fill="#003366" width="177.3" height="32.7"/>
		<rect x="79.1" y="460.9" fill="#003366" width="177.3" height="32.7"/>
	</g>
</g>
</svg>
