<?xml version="1.0" encoding="utf-8"?>
<!-- Generator: Adobe Illustrator 17.1.0, SVG Export Plug-In . SVG Version: 6.00 Build 0)  -->
<!DOCTYPE svg PUBLIC "-//W3C//DTD SVG 1.1//EN" "http://www.w3.org/Graphics/SVG/1.1/DTD/svg11.dtd">
<svg version="1.1" id="Capa_1" xmlns="http://www.w3.org/2000/svg" xmlns:xlink="http://www.w3.org/1999/xlink" x="0px" y="0px"
	 viewBox="0 0 64 64" enable-background="new 0 0 64 64" xml:space="preserve">
<path fill="#003366" d="M54,7.3c-1.7-1.6-2.5-1.8-1.8-0.7c0.4,0.7,0.8,1.5,1.1,2.2c0.8,2,1.1,3.9,1.1,5.7c0,2.9-0.4,5.3-1.1,7.2
	c-0.8,1.9-1.7,3.5-2.8,4.8c-1.1,1.3-2.4,2.5-3.7,3.4c-1.4,0.9-2.7,1.9-3.9,2.8c-1.2,0.9-2.3,2-3.2,3.2c-0.5,0.6-0.9,1.4-1.2,2.2
	c-0.5,1.3-0.6,3.2-0.6,4.1S35,44,31.6,44s-6.1-0.9-6.1-2v-2c0.2-2.6,0.7-4.8,1.5-6.6c0.8-1.8,1.8-3.3,2.9-4.5
	c1.1-1.2,2.2-2.3,3.5-3.2c1.2-0.9,2.3-1.8,3.4-2.7c1-0.9,1.9-1.9,2.5-3c0.6-1.1,0.9-2.5,0.9-4.1c0-2.8-0.7-4.9-2-6.2
	c-1.4-1.3-3.3-2-5.7-2c-1.6,0-3,0.3-4.2,1c-1.2,0.6-2.2,1.5-2.9,2.5c-0.8,1.1-1.3,2.3-1.7,3.7c-0.2,0.7-0.3,1.5-0.4,2.3
	c-0.1,1.3-3.1,2.3-6.8,2.3s-6.7-2.1-6.2-4.6c0.3-1.5,0.7-3,1.2-4.4c1.1-2.7,2.5-5.1,4.5-7.1c0.1-0.1,0.1-0.1,0.2-0.2
	C16,3,14.5,3.8,12.7,5.2C5.3,11,0.5,20,0.5,30.2c0,14,9.1,25.8,21.6,30c2.2,0.7,3.1,0.2,2.6-1.2c-0.3-0.8-0.5-1.7-0.5-2.6
	c0-3.9,3.2-7,7.1-7s7.1,3.1,7.1,7c0,1-0.2,1.9-0.6,2.8c-0.7,1.5,0.2,2.1,2.4,1.5c13.5-3.6,23.5-15.9,23.5-30.6
	C63.8,21.2,60,13,54,7.3z"/>
</svg>
