<?xml version="1.0" encoding="utf-8"?>
<!-- Generator: Adobe Illustrator 17.1.0, SVG Export Plug-In . SVG Version: 6.00 Build 0)  -->
<!DOCTYPE svg PUBLIC "-//W3C//DTD SVG 1.1//EN" "http://www.w3.org/Graphics/SVG/1.1/DTD/svg11.dtd">
<svg version="1.1" id="Layer_6" xmlns="http://www.w3.org/2000/svg" xmlns:xlink="http://www.w3.org/1999/xlink" x="0px" y="0px"
	 viewBox="0 0 600 600" enable-background="new 0 0 600 600" xml:space="preserve">
<path fill="#003366" d="M22.9,568h554.9c1.5,0,3,0,4.5-0.7h0.7l0,0c9.8-2.3,16.5-11.3,16.5-21.8v-491c0.7-12.8-9.8-22.5-21.8-22.5
	H22.9c-12,0-22.5,9.8-22.5,22.5v491C-1.1,570.1,22.9,568,22.9,568z M89.1,547.7H21.4c-0.7-0.7-1.5-1.5-1.5-3v-57.9h69.2V547.7z
	 M89.1,468H19.9v-63.1h69.2L89.1,468L89.1,468z M89.1,385.3H19.9v-66.9h69.2L89.1,385.3L89.1,385.3z M89.1,299.6H19.9v-72.2h69.2
	L89.1,299.6L89.1,299.6z M89.1,208.6H19.9v-70.7h69.2L89.1,208.6L89.1,208.6z M250.7,547.7H107.9v-60.9H250
	C250.7,486.8,250.7,547.7,250.7,547.7z M250.7,468H107.9v-63.1H250C250.7,404.9,250.7,468,250.7,468z M250.7,385.3H107.9v-66.9H250
	C250.7,319.1,250.7,385.3,250.7,385.3z M250.7,299.6H107.9v-72.2H250C250.7,227.4,250.7,299.6,250.7,299.6z M250.7,208.6H107.9
	v-70.7H250C250.7,137.9,250.7,208.6,250.7,208.6z M250.7,118.4H107.9V50.7H250C250.7,50.7,250.7,118.4,250.7,118.4z M413.9,547.7
	H270.3v-60.9h144.4v60.9H413.9z M413.9,468H270.3v-63.1h144.4V468H413.9z M413.9,385.3H270.3v-66.9h144.4v66.9L413.9,385.3
	L413.9,385.3z M413.9,299.6H270.3v-72.2h144.4v72.2H413.9L413.9,299.6z M413.9,208.6H270.3v-70.7h144.4v70.7H413.9z M413.9,118.4
	H270.3V50.7h144.4v67.7H413.9z M580.8,544.7c0,1.5-0.7,2.3-1.5,3H433.5v-60.9h148.1v57.9L580.8,544.7L580.8,544.7z M580.8,468H433.5
	v-63.1h148.1V468H580.8z M580.8,385.3H433.5v-66.9h148.1v66.9L580.8,385.3L580.8,385.3z M580.8,299.6H433.5v-72.2h148.1v72.2H580.8
	L580.8,299.6z M580.8,208.6H433.5v-70.7h148.1v70.7H580.8z M580.8,118.4H433.5V50.7h144.3c1.5,0,3,1.5,3,3
	C580.8,54.5,580.8,118.4,580.8,118.4z M236.5,370.3H121.4v-39.9h115.1V370.3z M399.6,371.8H283.8v-39.9h115.1
	C399.6,331.9,399.6,371.8,399.6,371.8z M566.5,371H450.7v-39.9h115.1V371H566.5z"/>
</svg>
