<?xml version="1.0" encoding="utf-8"?>
<!-- Generator: Adobe Illustrator 17.1.0, SVG Export Plug-In . SVG Version: 6.00 Build 0)  -->
<!DOCTYPE svg PUBLIC "-//W3C//DTD SVG 1.1//EN" "http://www.w3.org/Graphics/SVG/1.1/DTD/svg11.dtd">
<svg version="1.1" id="Layer_1" xmlns="http://www.w3.org/2000/svg" xmlns:xlink="http://www.w3.org/1999/xlink" x="0px" y="0px"
	 viewBox="0 205.9 600 186.3" enable-background="new 0 205.9 600 186.3" xml:space="preserve">
<g id="Layer_2">
	<g>
		<g>
			<path fill="#003366" d="M189.7,317.1c0.7-0.1,1.1-0.1,1.7-0.1c5.9,0.1,11.7,0.1,17.6,0.3c2.2,0.1,4.4,0.3,6.5,1
				c4.1,1.3,5.9,4.3,5.7,8.5c-0.2,3.3-2.9,6.3-6.6,7.1c-1.5,0.3-3.1,0.6-5.2,1c1.4,0.4,2.3,0.7,3.2,0.9c4.4,1.3,5.8,5.1,7.1,8.9
				c0.7,2.1,1.4,4.2,2.5,6.1c2.2,3.8,4.1,3.7,6.1,0.7c2.4-3.5,4.4-7.3,6.2-11.2c3.5-7.7,6.8-15.5,10.2-23.3c0.1-0.3,0.3-0.6,0.7-1.3
				c0.9,1.8,1.6,3.3,2.3,4.9c4,9,7.9,18,11.9,26.9c0.9,2.1,2.7,3.8,4.1,5.7c0.2,0.3,0.3,0.7,0.6,1.2c-5.4,0-10.5,0-15.9,0
				c0.3-0.4,0.5-0.9,0.7-1c2-0.6,2.4-2.2,1.9-3.8c-1-3.2-2.3-6.3-3.7-9.3c-0.2-0.4-1-0.7-1.5-0.7c-2.7-0.1-5.4-0.1-8.1,0
				c-0.5,0-1.3,0.3-1.5,0.7c-1,2.9-2,5.7-2.6,8.7c-0.5,2,0.7,3.5,2.7,4.3c0.4,0.1,0.7,0.5,0.9,1.1c-7.7,0-15.3,0-23.2,0
				c-1-3.4-1.9-7.1-3.1-10.5c-0.8-2.2-1.9-4.3-3.2-6.3c-1.3-2.1-3.7-2.3-5.9-2c-0.3,0.1-0.9,0.6-0.9,0.9c0,4.3,0.1,8.5,0.3,12.8
				c0.1,2.3,1.2,4,3.3,5.1c-5.1,0-10.3,0-16,0c4.5-2.5,4-6.5,4.1-10.1c0.1-6.1,0.1-12.3,0.1-18.3
				C192.7,320.8,192.7,320.8,189.7,317.1z M203.9,318.9c-2.9,0-2.9,0-2.9,3c0,2.7-0.1,5.5,0,8.3c0.1,4.2-0.9,3.8,4,3.7
				c5.4-0.1,8.5-4.5,7.1-9.7C211.2,320.7,208.4,318.9,203.9,318.9z M246.4,337.8c-1.5-3.7-2.9-7.1-4.3-10.6c-0.2,0-0.3,0.1-0.5,0.1
				c-1.3,3.5-2.7,6.9-4.1,10.5C240.5,337.8,243.3,337.8,246.4,337.8z"/>
			<path fill="#003366" d="M40.3,354.4c-3.7,0-7.4,0-11.3,0c-0.7-2.5-1.4-5.3-2.3-7.9c-0.9-2.6-1.9-5.2-3.1-7.6
				c-1.3-2.6-3.6-3.8-6.5-3.3c-0.5,0.1-1.1,0.7-1.1,0.9c0.1,4.4,0.1,8.8,0.3,13.2c0.1,1.9,1.1,3.5,3.1,4.1c0.1,0.1,0.1,0.3,0.3,0.5
				c-5.2,0-10.3,0-15.5,0c0-0.1-0.1-0.3-0.1-0.3c3.3-1.8,3.5-5,3.5-8.1c0.1-7.5,0.1-14.9,0.1-22.4c0-2.4-0.5-4.7-2.9-6.5
				c0.5-0.1,1.1-0.1,1.6-0.1c5.9,0.1,11.7,0.1,17.6,0.3c2.1,0.1,4.3,0.3,6.3,0.9c4.1,1.2,6,4.2,5.8,8.5c-0.1,3.5-2.7,6.3-6.7,7.3
				c-1.5,0.4-3.1,0.6-4.7,1.2c0.9,0.3,1.8,0.5,2.7,0.7c3.5,1.1,5.3,3.7,6.5,7c0.5,1.5,1,3,1.5,4.5C36.5,350,37.5,352.8,40.3,354.4z
				 M15.9,326.4C15.8,326.4,15.8,326.4,15.9,326.4c0,1.1,0,2.3,0,3.5c0,4.3,0,4.4,4.3,3.9c2.8-0.3,5.3-1.3,6.5-4.1
				c2.3-5.3-0.8-10.3-6.5-10.7c-0.9-0.1-1.9,0-2.7-0.1c-1.1-0.1-1.5,0.4-1.5,1.5C15.9,322.4,15.9,324.4,15.9,326.4z"/>
			<path fill="#003366" d="M319.1,335.4c0.3-7.8,3.5-14.7,11.4-17.7c10.7-4.1,23,1.7,24.7,14.7c0.8,6.3-0.1,12.1-4.4,16.9
				c-5.1,5.7-11.7,7.3-19,5.1c-7.3-2.2-11.2-7.5-12.3-14.9c-0.1-0.9-0.3-1.8-0.4-2.7C319.1,336.4,319.1,336.1,319.1,335.4z
				 M327.9,335.7c0.2,0,0.3,0.1,0.5,0.1c-0.1,4.5,0.2,9.1,2.2,13.2c1.3,2.7,3.2,4.7,6.4,4.7c3.6,0.1,6.2-2.1,7.6-6.2
				c1.9-5.6,1.8-11.4,1.3-17.2c-0.3-3.2-1-6.4-2.8-9.2c-2.7-4.1-8-4.5-11.2-0.7c-0.9,1.1-1.7,2.5-2.1,3.8
				C329.1,328,328.6,331.8,327.9,335.7z"/>
			<path fill="#003366" d="M185.5,335.8c-0.2,7.9-3.1,14.3-10.5,17.7c-11.3,5.2-24.6-1.7-25.7-15.1c-0.5-5.5,0.3-10.7,3.7-15.3
				c4.5-5.9,10.9-7.9,17.9-6.5c7.1,1.3,11.8,5.9,13.7,13C185.1,331.6,185.2,333.8,185.5,335.8z M158.3,335.8c0,1.1-0.1,2.1,0,3.1
				c0.6,3.2,1,6.5,2,9.6c1.1,3.5,3.9,5.3,7.2,5.2c3.5-0.1,5.5-2.3,6.6-5.3c0.9-2.4,1.5-5.1,1.7-7.6c0.7-5.5,0.5-11-1.1-16.3
				c-0.2-0.6-0.4-1.1-0.7-1.7c-1.5-2.9-3.3-5.1-7-5c-3.5,0.1-5.5,2.2-6.7,5.1C158.6,327,158.3,331.4,158.3,335.8z"/>
			<path fill="#003366" d="M66.9,328.2c0,4.1,0,8.5,0,13.4c-2.5-5.9-7.2-6.3-12.3-6.1c-0.5,0-1.2,0.6-1.2,0.9
				c0,3.8-0.2,7.6,0.3,11.3c0.5,3.6,2.5,4.9,6.2,4.6c4.8-0.4,8.3-3.1,11.3-6.5c1.3-1.4,2.5-3,4.1-4.3c-0.3,1.1-0.5,2.2-0.8,3.3
				c-0.7,2.7-1.5,5.3-2.1,7.9c-0.3,1.5-1.1,1.9-2.5,1.8c-7.1-0.2-14.2-0.3-21.3-0.4c-2.1,0-4.1,0.3-6.2,0.4c-0.4,0-0.8-0.1-1.2-0.1
				c0-0.3-0.1-0.5,0-0.5c3.3-1.3,3.8-4.3,3.8-7.2c0.1-7.9,0.1-15.9,0-23.9c0-2.3-0.6-4.3-3.1-5.4c0.4-0.3,0.5-0.5,0.7-0.5
				c8.6,0,17.2,0,25.9-0.1c1.1,0,1.8,0.3,2.1,1.5c0.5,2.5,1.1,4.9,1.6,7.3c0.1,0.3,0,0.7-0.1,1.5c-0.6-0.7-1-1.1-1.4-1.5
				c-4.1-5.2-9.5-7.5-16.1-6.7c-0.5,0.1-1.1,0.7-1.1,1.2c-0.1,4.1-0.1,8.3,0,12.5c0,0.4,0.6,1.1,0.9,1.2c2.8,0.2,5.8,0.5,8.2-1.2
				C64.2,331.4,65.5,329.6,66.9,328.2z"/>
			<path fill="#003366" d="M364.5,324.4c-0.1,0.5-0.1,1-0.1,1.5c0,5.7-0.2,11.5,0.1,17.3c0.1,2.6,0.9,5.3,1.9,7.7
				c0.5,1.2,1.8,2.1,2.9,3.3c-3.9,0-7.7,0-11.5,0c2.1-1.4,3.5-3.4,4.1-5.8c0.5-1.8,1-3.7,1-5.5c0.1-6.1,0-12.2-0.1-18.3
				c-0.1-2.9-0.8-5.6-3.8-7.1c0.5-0.1,0.9-0.1,1.3-0.1c2.7,0,5.4,0.1,8.1,0c1.3-0.1,2.1,0.3,2.9,1.3c5.3,6.3,10.7,12.6,16,18.9
				c0.5,0.6,1.1,1.1,1.7,1.7c0.2-0.3,0.4-0.5,0.4-0.6c-0.2-5.1-0.3-10.1-0.7-15.1c-0.2-2.4-1.7-4.4-3.7-6c3.6,0,7.2,0,10.8,0
				c0,0.1,0.1,0.3,0,0.3c-4,2.9-4.8,7.3-4.9,11.7c-0.1,8-0.1,16.1-0.1,24.1c0,0.6-0.3,1.2-0.5,1.8c-0.5-0.3-1.1-0.6-1.5-1.1
				c-7.7-9.6-15.3-19.3-22.9-28.9c-0.3-0.4-0.5-0.9-0.8-1.4C364.9,324.1,364.7,324.2,364.5,324.4z"/>
			<path fill="#003366" d="M80.3,341.9c1.4,2.6,2.5,5.5,4.3,7.9c3.1,4.1,8.5,5.1,12.6,2.5c2.5-1.5,3.3-4,3.2-6.7
				c-0.1-2.5-1.3-4.5-3.9-5.2c-3-0.9-6.1-1.7-9.1-2.6c-5.7-1.7-7.8-4.5-7.9-10.1c-0.1-5.9,3.7-9.1,8.1-10.5c6-1.9,11.8-0.8,17.6,1.1
				c0.4,0.1,1,1,0.9,1.4c-0.6,2.8-1.3,5.5-2.1,8.5c-0.9-2.1-1.5-4.1-2.5-5.8c-2.5-4.3-7.3-6-11.1-3.9c-2.5,1.5-3.5,3.9-3.3,6.7
				c0.1,2.5,1.8,3.8,4,4.4c3,0.9,6,1.7,8.9,2.5c4.2,1.2,7.5,3.3,7.9,8.1c0.5,5.1-1.2,9.4-5.7,12.2c-4.6,2.9-9.7,3.3-14.8,2.2
				c-2.9-0.6-5.6-1.6-8.4-2.5c-0.9-0.3-1.1-0.9-0.9-1.8C78.9,347.5,79.7,344.5,80.3,341.9z"/>
			<path fill="#003366" d="M45.1,281.9c-2.9,0.9-3.3,3-3.2,5.6c0.1,2.6-0.1,5.3,0.1,7.9c0.1,1.3-0.4,2.1-1.4,2.7
				c-3.3,2.2-6.9,3.2-10.8,3.8c-6.3,1.1-12.5,0.3-18.1-2.7c-6.7-3.7-9.8-9.6-9.8-17c0-7.5,3.6-13.5,10.3-17
				c10.3-5.4,20.5-3.7,30.6,1.5c-0.9,2.2-1.7,4.1-2.6,6.5c-0.9-3.8-2.8-6.5-6-8c-8.8-4.5-20.3-2.3-23.7,10.8
				c-1.6,6.3-1.4,12.5,2.1,18.2c4.2,6.9,10.9,8.4,18,6.1c3.1-1,4.4-3.6,4.6-6.7c0.2-2.3,0.1-4.7,0-7c-0.1-2.1-1.2-3.3-3.5-3.9
				c-0.9-0.3-1.7-0.5-3.1-0.8C34.5,281.9,39.8,281.9,45.1,281.9z"/>
			<path fill="#003366" d="M301,301.6c-3,0-6.1,0.1-9.1-0.1c-0.5,0-1-0.6-1.3-1c-2.1-3.6-4.1-7.2-6.3-10.7c-1.1-1.7-2.3-3.3-3.8-4.6
				c-0.7-0.6-2.2-0.8-3-0.5c-0.7,0.3-1.2,1.7-1.2,2.6c-0.1,2.9-0.1,5.9-0.1,8.8c0,2.5,1.1,4.2,3.9,5.3c-4.7,0-8.9,0-13.1,0
				c3.5-2.1,3.2-5.7,3.2-9.1c0-8.9,0-17.9,0-26.8c0-2.1-0.2-4.2-3.1-5.1c3.3-0.8,6.1-1.5,9.2-2.3c0,8.7,0,17.1,0,26.1
				c2.2-1.9,4-3.3,5.8-4.9c1.7-1.4,3.3-2.7,4.9-4.1c2.1-1.9,2.1-2.8,0.3-4.9c3.9,0,7.9,0,11.7,0c-7.9,2-13.3,8-20.1,12.8
				c1.3,0.2,1.9,0.4,2.6,0.5c3.4,0.1,6.1,1.6,8.1,4.3c1.2,1.6,2.3,3.3,3.4,5C295.1,296.2,297.5,299.3,301,301.6z"/>
			<path fill="#003366" d="M287.4,354.2c-5.5,0-10.9,0-16.6,0c0.4-0.3,0.6-0.5,0.8-0.6c2.4-0.9,3.3-2.9,3.3-5.2
				c0.2-5.6,0.3-11.3,0.4-16.9c0.1-2.8,0.1-5.6,0-8.5c-0.1-4-2.6-5.3-5.9-2.9c-2.1,1.5-3.9,3.7-5.7,5.6c-0.5,0.5-0.9,1.1-1.4,1.7
				c-0.1-0.1-0.3-0.1-0.4-0.3c0.7-3.1,1.4-6.1,2.2-9.1c0.1-0.3,0.8-0.8,1.2-0.8c9.7-0.1,19.3-0.1,29.1-0.1c0.8,3.3,1.6,6.7,2.4,9.9
				c-0.1,0.1-0.3,0.1-0.5,0.2c-0.3-0.4-0.6-0.8-1-1.1c-1.7-1.9-3.5-3.7-5.3-5.5c-0.5-0.5-1.3-0.9-2-1.3c-2.7-1.1-4.5,0-4.5,3
				c0,8.4,0,16.7,0,25.1C283.6,350.4,284.2,351.3,287.4,354.2z"/>
			<path fill="#003366" d="M110.6,327.2c0.7-3,1.4-6,2.1-9c0.1-0.4,0.9-0.9,1.3-0.9c9.7-0.1,19.3-0.1,29.1-0.1
				c0.8,3.4,1.6,6.7,2.5,9.9c-0.1,0.1-0.3,0.1-0.4,0.3c-0.3-0.4-0.7-0.8-1.1-1.2c-1.8-1.9-3.6-3.8-5.5-5.6c-0.7-0.6-1.7-1.1-2.6-1.3
				c-2.3-0.6-3.7,0.5-3.7,2.9c-0.1,8.5-0.1,17.1,0,25.7c0,2.6,0.7,5.1,3.6,6.3c-5.4,0-10.8,0-16.2,0c4.4-1.5,4.1-5.5,4.2-8.8
				c0.2-7.4,0.1-14.8,0.1-22.2c-0.1-4.1-2.6-5.5-5.9-3c-2.2,1.7-4,3.9-6,5.9c-0.4,0.4-0.7,0.9-1,1.4
				C110.9,327.4,110.8,327.4,110.6,327.2z"/>
			<path fill="#003366" d="M144.5,301.2c-2.3,0-4.1,0.1-5.9-0.1c-0.5-0.1-1.3-0.8-1.5-1.5c-0.5-1.4-0.7-2.9-1.1-4.7
				c-0.5,0.7-0.9,1.2-1.1,1.7c-2.4,4.1-6.2,5.4-10.6,5.1c-2.3-0.1-4.6-0.7-6.7-1.7c-3.4-1.4-5-4.3-5.1-7.9c-0.1-3.7,2.2-6.1,5.5-7.5
				c5.1-2.3,10.5-2.4,15.8-2.4c1.8,0,2.3-0.6,2.2-2.3c-0.1-8.1-4.9-10.7-12-9.6c-4.2,0.6-6.7,3.3-8.2,7.5c-0.5-1.8-1.1-3.3-1.4-4.7
				c-0.1-0.3,0.4-1.1,0.8-1.3c4.7-2.1,9.6-2.8,14.7-2.3c2.3,0.2,4.5,0.9,6.7,1.7c3.7,1.5,5.3,4.5,5.4,8.4c0.1,5.3,0.1,10.7,0,16
				C141.8,297.9,141.9,299.8,144.5,301.2z M135.9,287c0-0.7,0.1-1.7-0.1-2.5c-0.1-0.4-0.7-1.1-1-1.1c-3.1,0.2-6.3,0-9.2,0.8
				c-5.9,1.7-7.2,6.2-6.3,11.1c0.5,2.9,3.3,5.1,6.1,5.4c3.6,0.4,6.5-0.9,8.3-4.1C135.4,293.8,135.9,290.6,135.9,287z"/>
			<path fill="#003366" d="M262.1,301.3c-1.6,0-3.2-0.1-4.8,0c-1.3,0.1-1.9-0.5-2.2-1.7c-0.3-1.4-0.7-2.8-1-4.5
				c-0.4,0.5-0.7,0.7-0.9,1.1c-2.2,3.9-5.7,5.7-10,5.7c-2.8,0-5.6-0.5-8.1-1.9c-3-1.7-4.5-4.3-4.5-7.7c-0.1-3.3,1.6-5.9,4.6-7.1
				c3.1-1.2,6.3-2,9.5-2.5c2.5-0.5,5.1-0.3,7.7-0.3c1.3,0,1.7-0.5,1.7-1.7c0-4.1-0.7-7.9-4.9-9.6c-4.7-1.9-12.1-1.2-14.7,5.7
				c-0.1,0.3-0.2,0.5-0.5,1.2c-0.5-1.8-1.1-3.2-1.4-4.7c-0.1-0.4,0.4-1.1,0.8-1.3c6.9-2.8,13.9-3.5,21.1-0.8
				c3.9,1.5,5.7,4.5,5.7,8.6c0.1,5.5,0.1,11,0,16.5C260.1,298.3,260.5,300,262.1,301.3z M250.1,283c-2.1,0.3-4.3,0.5-6.3,1.1
				c-5.7,1.8-7.3,6.2-6.3,11.3c0.6,2.9,3.3,5,6.1,5.3c3.7,0.4,6.6-1.1,8.4-4.3c1.6-2.8,2.1-5.9,2-9.1
				C254.1,283.4,254.1,283.4,250.1,283z"/>
			<path fill="#003366" d="M189.3,301.3c2.8-1.4,3.4-3.9,3.4-6.7c0-8.6-0.1-17.3,0-25.9c0-2.4-0.4-4.5-3.3-5.8c4.6,0,8.6,0,12.9,0
				c-3.5,1.8-2.7,5.1-2.8,8.1c0,7.7,0,15.3,0,22.9c0,4.4,1.7,5.9,5.9,6.1c6.1,0.3,11.9-0.5,17.1-4.3c1.5-1.1,2.7-2.4,4.4-3.9
				c-0.9,3-1.6,5.9-2.5,8.6c-0.1,0.3-1.1,0.7-1.7,0.7C211.6,301.3,200.5,301.3,189.3,301.3z"/>
			<path fill="#003366" d="M302.1,317.4c3.8,0,8,0,12.3,0c-2.6,1.7-2.2,4.4-2.2,6.7c-0.1,8,0.1,16,0.2,24.1c0.1,2.3,0.7,4.5,3.3,5.5
				c-0.1,0.1-0.2,0.3-0.3,0.3c-5.1,0-10.1,0-15.2,0c3.7-1.8,3.5-5.1,3.5-8.3c0-8.1,0.1-16.1-0.1-24.2
				C303.5,320.2,302.6,318.8,302.1,317.4z"/>
			<path fill="#003366" d="M369.1,271.8c-0.5,1.7-1.1,3.1-1.6,4.8c-3.3-5.5-7.8-7.3-13.7-5.7c-2.1,0.5-3.7,1.7-4.6,3.7
				c-1.9,4,0,7.5,4.5,8.2c3.5,0.6,7,0.9,10.5,1.5c4.5,0.7,6.4,2.7,7,6.5c0.5,3.5-1.4,6.9-4.8,8.7c-3.9,2.1-8.3,2.7-12.6,2.5
				c-3.7-0.2-7.5-1.1-11.2-1.7c-1.5-0.2-1.8-1-1.4-2.3c0.3-1.1,0.7-2.3,1.1-3.9c1.7,4.4,5.1,5.9,9,6.7c3.6,0.7,7.2,0.7,10.5-1.1
				c2.8-1.5,4.1-4.1,3.5-7.2c-0.4-2.1-2.9-3.7-6.2-4c-3.3-0.4-6.5-0.7-9.7-1.5c-2.9-0.7-5.5-2.2-6.4-5.4c-1.3-4.3,1-8.6,5.9-10.3
				C355.5,268.8,362.3,269.3,369.1,271.8z"/>
			<path fill="#003366" d="M335.6,289.4c-0.1,0.4-0.3,0.8-0.5,1.1c-1.5,2.4-2.8,5.1-4.8,7c-5.4,5.1-16.2,5.3-19.2-4.9
				c-0.9-3-0.7-6.3-1-9.4c-0.1-1.3,0.4-1.8,1.7-1.8c4.9,0.1,9.8,0,14.7,0c3,0,6,0,9.1,0c-0.3-3.5-1.9-6.3-4.5-8.3
				c-4.1-3.1-8.7-4.1-13.8-3.3c-12.6,2.1-17.3,15.1-11.5,24.3c3.7,6,9.6,7.9,16.4,7.5c6.6-0.5,10.9-4.1,13.3-10.1
				c0.3-0.7,0.3-1.5,0.5-2.2C335.9,289.5,335.7,289.4,335.6,289.4z M315.6,271.4c3.1-1.7,6.5-1.4,9.4,0.5c2.9,1.9,3.7,4.9,3.5,8.5
				c-6.1,0-12,0-18.1,0C310.9,276.6,312.2,273.2,315.6,271.4z"/>
			<path fill="#003366" d="M106.3,281.4c-7.5,0-14.9,0-22.3,0c-0.4,0-0.9,0.1-1.3,0c-1.4-0.2-2,0.4-1.9,1.9c0.3,3.1,0.1,6.4,1,9.4
				c3.1,10.1,13.9,9.9,19.3,4.8c2-1.9,3.2-4.7,4.8-7.1c0.2-0.3,0.3-0.7,0.6-1.2c1,4.3-5.3,11.3-11.2,12.3
				c-9.7,1.7-18.9-2.7-20.8-12.4c-1.9-9.8,3.9-18.4,15.6-19.5C97.1,269,105.7,273.2,106.3,281.4z M99.4,280.4
				c0.2-3.7-0.7-6.7-3.7-8.7c-3.1-1.9-6.5-2.1-9.7-0.1c-3.1,2-4.3,5.1-4.7,8.7C87.4,280.4,93.3,280.4,99.4,280.4z"/>
			<path fill="#003366" d="M51.3,272.3c2.8-0.7,5.5-1.3,8.3-2.1c0,2.5,0,4.9,0,7.3c1.7-2,3.2-3.9,4.9-5.5c1.8-1.7,4.2-2.3,7-2.5
				c-0.8,1.9-1.5,3.7-2.2,5.5c-2.9-0.8-5.7-1.3-7.5,1.7c-0.9,1.5-1.7,3.3-1.9,5.1c-0.3,4.8-0.1,9.7-0.1,14.5
				c0.1,2.7,0.8,3.7,3.3,5.1c-4.1,0-8.5,0-12.9,0c3.3-0.9,3.6-3.4,3.6-6.2c-0.1-6.1,0-12.1,0-18.2C53.9,275,53.5,273.2,51.3,272.3z"
				/>
			<path fill="#003366" d="M159.4,271.7c2.3,0,4.2,0,6.2,0c0.3,1.3-0.1,1.7-1.2,1.7c-0.2,0-0.3,0-0.5,0c-4.3,0.1-4.3,0.1-4.3,4.3
				c0,5.3,0,10.5,0,15.8c0,3.7,0.9,5.6,3.9,7.9c-2.3,0-4.5,0.1-6.7,0c-1.6-0.1-2.6-1.1-2.9-2.5c-0.2-0.9-0.3-1.9-0.3-2.9
				c0-6.7-0.1-13.5,0-20.2c0-1.7-0.4-2.5-2.2-2.3c-0.7,0.1-1.3,0-2.1-0.3c4.7-1.9,7.7-5.3,10.2-9.6
				C159.4,266.1,159.4,268.8,159.4,271.7z"/>
		</g>
		<path fill="#003366" d="M342.8,250.5c0,0,15.9-9.4,19.4-14.3c0,0,6.8-5.7,13.5-6.1c0,0,18.1-3.7,18.9-13.9c0,0,5.7-2.7,7.6-2.3
			c0,0,0.7,0.9,0,1.5c0,0-3.9,4.9-0.9,3.7c0,0,2.7-2.5,2.7-5.3c0,0,2.5-2.5,2.5-3.9c0,0,1-2.7,2.7-1.3c0,0,1.1,1.6,0,3.3
			c0,0-8.1,7.8-2.7,4.4c0,0,3.5-3.1,5.5-3c0,0,2.1-2.5,5.3-1.7c0,0,3-0.3-0.3-2.3c0,0-2.3-0.1-2.7,0.3c0,0-3.9,0.3-2.5-2.3
			c0,0-0.3-1.9,3.3-1.5c0,0,7.8,2.2,10.4,6.2l5.9,0.1c0,0,1.5,1.4,2.1,0.1c0,0,5-1.5,6.9,6.1c0,0,1.6,20.1,13.2,15.8l7.2,0.4
			c0,0-0.7,4.8-2.9,5.9c0,0,0.1,3.2,0.8,3.5c0,0,5.4,5.3,5.5,6.5c0,0-2.9,3.1-2.3,4.5l-0.7,0.7c0,0-1.3,2.3,0.2,2.3
			c0,0,5.2,0.7,5.5,2.6v0.8h-2.8c0,0-0.7,3.3-0.3,3.6c0,0,1.2,0.7,0.5,1.6c0,0-2.3,0.9-1.1,2.1c0,0,0.4,1.7,2.3,0.8l2.5-0.3l0.9-0.5
			l0.8,0.3c0,0,2,0.5,0.8,2.6c0,0-0.7,2.3,1,2.6l6.6,1c0,0,0.9,0.7,0.9,1.5c0,0,6.6-0.2,7.5,2.2c0,0,1.4,0.7,1.8,0
			c0,0,2.1-1.5,4.2-0.7c2.1,0.7,1.9,1.9,3.1,1.1c0,0,3.7-0.9,5.3,1.9h6.5c0,0,6.6,3.3,7.5,4.1c0,0,6.7-2.3,10.8,6.1
			c0,0,10.2,11.9,9.7,18.3c0,0-1.5,4-2.7,4.5c0,0,1.9-0.1,2.7,1.1c0,0,0.4,5.4-2.8,5.5c0,0-2.1-0.9-2.8-2.3h-2.1
			c0,0-2.8-2.2-2.9-3.5l-3.1-0.5c0,0-4.4-5.4-6.2-6.7c0,0-2.2,0.3-1.1-3.3l-1.2-0.2l0.1-1.5l0.7-0.2v-1c0,0-4.9-0.2-5.1-0.6
			c0,0-1.8,0.3-0.6,1.9c0,0,8.2,6.9,5.2,14.3c0,0-2.1,2.5-1.7,3.5l-1.9,0.5c0,0-2.2,3.5-2.1,5.1c-0.1,0.3-2.1,1.8-2.1,2.3v14.7
			c0,0-0.7,6.1-5.2,5.3c0,0-0.9,5.6-6.3,4.4c0,0-2.3,2-1.9,4.9c0,0-0.5,4.3-3.9,4.9c0,0,1.9,1.6,1.7,2.9l2.4,0.4
			c0,0,0.8,4.3-1.8,3.9c0,0-4.1,1.3-6.5-0.6c0,0-2.1,0.9-1.9,3.3c0,0-1.7,1.9-1.6,3.1c0,0,2.2,0.1,2.3,1.7c0,0,1.6,1.1,2.6-0.5
			c0,0,4.2-2.7,4.2,1.9c0,0,1.3,1.1,0.9-2.5c0,0,3.7-4.9,9.3-4.2c0,0,10.3-14.9,23.5-6.7l2.2-0.3c0,0,0.7-2.6,2.3-2.5
			c0,0,1.5-1.7,1.5-2.4l6.7-0.1c0,0,0.5-1.5,2.1-1.7c0,0,1.5,0.8,3.4,0c0,0,2.2-0.5,2.8,0.4l0.9-0.1v-0.4l6.3-0.3
			c0,0-2.2-2.6-2.1-5.3l-0.3-3.3c0,0-2.7,0.4-3.3,1.9c0,0-6.5,0.3-8.7-2.5c0,0,1.2-6.9,7.4-8.3c0,0,4.9-6.1,12.7-6.1
			c0,0,2.9-0.1,3.7,0.1c0,0,7.3-3.7,14.7-1.1l0.6,0.3c0,0,0.7-1.4,3.2-0.6c0,0,0.7,1.5,2.3,2.1c0,0,1.4-1.9,0.9-4.7
			c0,0,3.9-2.5,4.8-3.4c0.1,0,5.7-0.7,5.5-0.7c-2.9,0.4,4.5-3.5,6.5-3.4c0,0,2.1,1.8-1,2.9c0,0-2.5,1.3-2.4,2.1c0,0-3.1,1.4-0.2,2.1
			c0,0,6.7,1.6,0.5,4.7c0,0-0.2,1.6,0.5,1.8c0,0,0.5,5.5,0.3,6.1c0,0-2.3,0.7-3.6,0.2c0,0-5.1,3.9-5.5,5.2c0,0-14.1,2.5-19.7-1.4
			c0,0-17.2,0.7-17.5,3.5c0,0-0.3,4.3,1.5,4.8c0,0,2,5.2,0,6.9c0,0-3.3,2.5-2.9,3.7c0,0-24.8,17.7-38.6,18.6c0,0-7.3,10.5-12.9,4.9
			c0,0-8.2,6.3-10.8,1.1c0,0-7.9-2.3-10.9-6l-2.8-0.1c0,0-0.5-3.7,4.2-6.7c0,0,1.5-3.5,2.5-4.1c0,0,0-4.5,3.9-5.3
			c0,0-0.9-5.2,4.5-6.9c0,0,1.7-0.7,1.7-1.8c0,0,2.3-10.1,0.2-14.2v-10.1c0,0-2.6-5.3-5.3-6.5c0,0-5.5,0.1-11.2,9.7
			c0,0-6,1.2-5.8-4.1c0,0-1.3-5.6,4.2-4.9c0,0,2.9-1.5,2.9-5.6c0,0-0.3-1.1,2.5-0.7c0,0,3.5-12.6,1.4-14.3c0,0-3.9-4.8,0.9-3.8
			c0,0-0.4-6.5-3.7-6.9l-1.7-1.7l-2.1-0.3l-0.7-1.4L469,294c0,0-1.5-3.7-3.2-4.3l-3.3-0.3c0,0-2.3-2.4-4.8-3.3c0,0-2.9,1.3-2.8,2.7
			c0,0-4.4-0.2-1.9,4.3l0.1,1.7c0,0-6.1,2-6,4.1l-0.1,5.9c0,0-2.3,3.2-2.2,4.4c0.1,1.2-4.1,0.6-2.7-3.5c1.4-4.1,1.1-5.3,2.3-6.2
			s-0.6-1.2-2.2,0.6c-1.6,1.8-0.6,5.7-7.1,4.6l-0.2,3.7c0,0-3.5,1.3-2.8,2.6c0,0-0.9,10.6-6,13.6c0,0,2.7,3.6-0.7,8.9
			c0,0-0.2,5.3,0.7,6.6c0,0,5.7,21.8-4.5,30.9c0,0-10.7,15.1-17.3,7.9c0,0-2-1.1-2.1-6.1c0,0-0.5-5.3-2.3-6.3c0,0-3.3-3.7,0.6-6.9
			c0,0-0.7-5.3,0.7-6.3c0,0,1-1.6-0.7-3.5c0,0-1.3-12.1,4.5-18.1c0,0-1.7-8.4,4.6-12c0,0-1.3-6.8,4.1-11.7c0,0,5.3-10.1,7.6-11.4
			c0,0,0.8-2.8-1.8-1.5c0,0-5.1,8.9-9.7,10.1c0,0-2.2,5.3-6.6,5.6c0,0-0.5-1.7,0.1-4.2c0,0,9-12.9,13.3-16c0,0,1-5.3,4.7-5.7
			c0,0-0.1-2.9,1.3-2.7c0,0,0.9,0.9,0.5,2.6l1.6,0.1c0,0,0.5-3.1,2.9-3.6c0,0,2.1-0.9,2.1,1c0,0-0.7,2.1-2.1,2.7
			c0,0,3.7-1.7,5.5-1.8c0,0-0.9-4.9,4.7-3c0,0,4.3-0.5,5.6,0.7c0,0,2.3-5.9,6.6-2.3c0,0,6.3,0.9,7.7,5.7c0,0,1,1.3,2.8-4.1
			c0,0,3.7,0.2,6.3,2.7l5.3-0.1l0.1-1.1c0,0-5.1-3-3.8-8.7c0,0-1-1.7-5.3-1.7c0,0-2.4-2.7-3-0.9c0,0-2.5,0.1-3.4-0.9l-1.5-0.1
			c0,0-1.2-5.5,1.2-6.6l-4.3-0.3c0,0-3.1,2.7-6.7,1.2c0,0-8.5-1.4-9.1,0.8c0,0-5.3,1-5.9,3.5c0,0-5.7,0.9-5.9-3l-5.5,0.2
			c0,0-3.7-3.3-3.9-7.5c0,0-0.2-0.9-1.4-0.8c0,0-2-3-4.3-1.9c0,0-2.3-2.7-4.8-0.9c0,0-4.1,6-4.1,1.2c0,0,4.3-10.5,14.3-11.9
			c0,0,2.3-2.8-6.1-1.9c0,0-4.4,0.7-5.9,2.8c0,0-3.9,3.7-7,3.6c0,0,0.6,3.7-4.7,2.4c0,0-2.9,2.1-2.9,2.9l-7.9-0.2
			c0,0-5.8,4.7-10.8,4.6c0,0-2.5-1.4-3.6-3.1l-3.8,0.8c0,0,1.2-3.7,3.1-5c0,0,1.4-2.3-1.9-2.5c0,0-3.1,0.4-5.3,1.3
			C358.5,249.2,346.5,253.4,342.8,250.5z"/>
	</g>
</g>
</svg>
