<?xml version="1.0" encoding="utf-8"?>
<!-- Generator: Adobe Illustrator 18.0.0, SVG Export Plug-In . SVG Version: 6.00 Build 0)  -->
<!DOCTYPE svg PUBLIC "-//W3C//DTD SVG 1.1//EN" "http://www.w3.org/Graphics/SVG/1.1/DTD/svg11.dtd">
<svg version="1.1" id="Layer_1" xmlns="http://www.w3.org/2000/svg" xmlns:xlink="http://www.w3.org/1999/xlink" x="0px" y="0px"
	 viewBox="0 0 42 42" enable-background="new 0 0 42 42" xml:space="preserve">
<g>
	<path fill="#1C3664" d="M37.8,0.9H19.4c-1.4,0-2.5,1.1-2.5,2.5v30.2c0,1.4,1.1,2.5,2.5,2.5h20c1.4,0,2.5-1.1,2.5-2.5V5
		c0-0.7-0.3-1.4-0.8-1.9l-1.4-1.4C39.1,1.2,38.4,0.9,37.8,0.9z"/>
	<path fill="#FFFFFF" d="M36.6,2.1H20.2c-1.4,0-2.5,1.1-2.5,2.5v27.8c0,1.4,1.1,2.5,2.5,2.5h18.2c1.4,0,2.5-1.1,2.5-2.5V6.2
		c0-0.7-0.6-1.3-1.3-1.3h-0.5c-0.7,0-1.3-0.6-1.3-1.3V3.4C37.9,2.7,37.3,2.1,36.6,2.1z"/>
	<g>
		<path fill="#1C3664" d="M38.2,16H20.3c-0.3,0-0.6-0.3-0.6-0.6v0c0-0.3,0.3-0.6,0.6-0.6h17.9c0.3,0,0.6,0.3,0.6,0.6v0
			C38.8,15.7,38.5,16,38.2,16z"/>
		<path fill="#1C3664" d="M38.2,19H20.3c-0.3,0-0.6-0.3-0.6-0.6v0c0-0.3,0.3-0.6,0.6-0.6h17.9c0.3,0,0.6,0.3,0.6,0.6v0
			C38.8,18.7,38.5,19,38.2,19z"/>
		<path fill="#1C3664" d="M24.7,22.3h-4.3c-0.3,0-0.6-0.3-0.6-0.6v0c0-0.3,0.3-0.6,0.6-0.6h4.3c0.3,0,0.6,0.3,0.6,0.6v0
			C25.3,22,25,22.3,24.7,22.3z"/>
	</g>
</g>
<g>
	<path fill="#1C3664" d="M30.3,3.8H11.9c-1.4,0-2.5,1.1-2.5,2.5v30.2c0,1.4,1.1,2.5,2.5,2.5h20c1.4,0,2.5-1.1,2.5-2.5V7.9
		c0-0.7-0.3-1.4-0.8-1.9l-1.4-1.4C31.6,4.1,31,3.8,30.3,3.8z"/>
	<path fill="#FFFFFF" d="M29.1,5H12.8c-1.4,0-2.5,1.1-2.5,2.5v27.8c0,1.4,1.1,2.5,2.5,2.5H31c1.4,0,2.5-1.1,2.5-2.5V9.1
		c0-0.7-0.6-1.3-1.3-1.3h-0.5c-0.7,0-1.3-0.6-1.3-1.3V6.3C30.4,5.6,29.8,5,29.1,5z"/>
	<g>
		<path fill="#1C3664" d="M30.7,18.9H12.9c-0.3,0-0.6-0.3-0.6-0.6v0c0-0.3,0.3-0.6,0.6-0.6h17.9c0.3,0,0.6,0.3,0.6,0.6v0
			C31.4,18.6,31.1,18.9,30.7,18.9z"/>
		<path fill="#1C3664" d="M30.7,21.9H12.9c-0.3,0-0.6-0.3-0.6-0.6v0c0-0.3,0.3-0.6,0.6-0.6h17.9c0.3,0,0.6,0.3,0.6,0.6v0
			C31.4,21.6,31.1,21.9,30.7,21.9z"/>
		<path fill="#1C3664" d="M17.2,25.2h-4.3c-0.3,0-0.6-0.3-0.6-0.6v0c0-0.3,0.3-0.6,0.6-0.6h4.3c0.3,0,0.6,0.3,0.6,0.6v0
			C17.8,24.9,17.5,25.2,17.2,25.2z"/>
	</g>
</g>
<g>
	<path fill="#1C3664" d="M21,6.7H2.6c-1.4,0-2.5,1.1-2.5,2.5v30.2c0,1.4,1.1,2.5,2.5,2.5h20c1.4,0,2.5-1.1,2.5-2.5V10.8
		c0-0.7-0.3-1.4-0.8-1.9l-1.4-1.4C22.3,7,21.7,6.7,21,6.7z"/>
	<path fill="#FFFFFF" d="M19.8,7.9H3.5C2.1,7.9,1,9,1,10.4v27.8c0,1.4,1.1,2.5,2.5,2.5h18.2c1.4,0,2.5-1.1,2.5-2.5V12
		c0-0.7-0.6-1.3-1.3-1.3h-0.5c-0.7,0-1.3-0.6-1.3-1.3V9.2C21.1,8.5,20.5,7.9,19.8,7.9z"/>
	<g>
		<path fill="#1C3664" d="M21.4,21.8H3.6c-0.3,0-0.6-0.3-0.6-0.6l0,0c0-0.3,0.3-0.6,0.6-0.6h17.9c0.3,0,0.6,0.3,0.6,0.6l0,0
			C22,21.5,21.8,21.8,21.4,21.8z"/>
		<path fill="#1C3664" d="M21.4,24.8H3.6c-0.3,0-0.6-0.3-0.6-0.6v0c0-0.3,0.3-0.6,0.6-0.6h17.9c0.3,0,0.6,0.3,0.6,0.6v0
			C22,24.5,21.8,24.8,21.4,24.8z"/>
		<path fill="#1C3664" d="M7.9,28.1H3.6c-0.3,0-0.6-0.3-0.6-0.6v0c0-0.3,0.3-0.6,0.6-0.6h4.3c0.3,0,0.6,0.3,0.6,0.6v0
			C8.5,27.8,8.2,28.1,7.9,28.1z"/>
	</g>
</g>
</svg>
