<?xml version="1.0" encoding="utf-8"?>
<!-- Generator: Adobe Illustrator 18.0.0, SVG Export Plug-In . SVG Version: 6.00 Build 0)  -->
<!DOCTYPE svg PUBLIC "-//W3C//DTD SVG 1.1//EN" "http://www.w3.org/Graphics/SVG/1.1/DTD/svg11.dtd">
<svg version="1.1" id="Layer_1" xmlns="http://www.w3.org/2000/svg" xmlns:xlink="http://www.w3.org/1999/xlink" x="0px" y="0px"
	 viewBox="0 0 42 42" enable-background="new 0 0 42 42" xml:space="preserve">
<g>
	<polygon fill="#FFFFFF" points="16.2,35.7 14.3,31.2 13.2,27.7 11.1,23.2 8.4,18.5 6.8,11.6 9.8,6.4 12.8,3.5 17.8,0.6 19.5,0.6 
		24.4,0.6 30.6,4.7 34.2,10.1 34.2,15.7 33.2,20.2 30.1,24.4 28,27.7 26.7,34.5 24.2,38.6 	"/>
	<path fill="#1C3664" d="M35.4,14.1C35.4,6.3,28.8,0,21,0S6.6,6.3,6.6,14.1c0,3.1,1.3,5.9,3,8.3h0c1.1,1.5,2.1,2.8,3.2,4.5
		c2.2,3.8,1.9,7.4,1.9,8.2v0.1l0.3,4.6c0.1,1.2,1.1,2.2,2.4,2.2h7.4c1.2,0,2.3-1,2.4-2.2l0.3-4.6h0v-0.1c0-0.9-0.4-4.4,1.8-8.2
		c1-1.7,2.1-3,3.2-4.5h0C34.1,20,35.4,17.2,35.4,14.1z M30.5,22.3c-0.1,0.1-0.1,0.2-0.2,0.2c-0.8,1.1-1.7,2.2-2.5,3.6
		c-1.7,3-2,5.8-2.1,7.5h-1.6l-6.4,0h-1.6c-0.1-1.7-0.4-4.6-2.1-7.5c-0.5-0.8-0.9-1.5-1.4-2.1h0l-1.9-2.6c-1.6-2.2-2.7-4.7-2.7-7.4
		c0-3.3,1.6-6.5,4-8.8c2.4-2.4,5.5-3.7,8.8-3.7c3.3,0,6.5,1.3,8.8,3.7c2.4,2.4,4,5.5,4,8.8c0,2.7-1.1,5.2-2.7,7.4L30.5,22.3z"/>
</g>
</svg>
