<?xml version="1.0" encoding="utf-8"?>
<!-- Generator: Adobe Illustrator 18.0.0, SVG Export Plug-In . SVG Version: 6.00 Build 0)  -->
<!DOCTYPE svg PUBLIC "-//W3C//DTD SVG 1.1//EN" "http://www.w3.org/Graphics/SVG/1.1/DTD/svg11.dtd">
<svg version="1.1" id="Layer_1" xmlns="http://www.w3.org/2000/svg" xmlns:xlink="http://www.w3.org/1999/xlink" x="0px" y="0px"
	 viewBox="0 0 42 42" enable-background="new 0 0 42 42" xml:space="preserve">
<g id="zTr5lw.tif">
	<g>
		<path fill="#1C3664" d="M0.1,36.5c0-10.3,0-20.6,0-30.9c0-0.1,0.1-0.2,0.1-0.3c0.3-1.6,1.1-2.9,2.4-3.9c0.9-0.7,1.9-1.1,3-1.3
			c10.3,0,20.6,0,30.9,0c0.1,0,0.2,0.1,0.3,0.1c1.6,0.3,2.9,1.1,3.9,2.4c0.7,0.9,1.1,1.9,1.3,3c0,7.5,0,15,0,22.5
			c-0.4,0.6-0.6,1.3-1.1,1.8c-1,1.2-2.1,2.4-3.2,3.5c-2.1,2.1-4.1,4.2-6.2,6.2c-0.7,0.7-1.6,1.3-2.4,1.9c-0.4,0.3-1,0.5-1.5,0.5
			c-7.1,0-14.1,0-21.2,0c-2,0-3.5-0.9-4.8-2.4C0.7,38.7,0.3,37.6,0.1,36.5z M21,3.4c-4.7,0-9.5,0-14.2,0c-2.2,0-3.5,1.3-3.5,3.5
			c0,9.5,0,18.9,0,28.4c0,2.2,1.3,3.5,3.5,3.5c6.2,0,12.4,0,18.6,0c0.8,0,1.5,0,2.3,0c0.5,0,0.9-0.2,1-0.7c0.2-0.6,0.3-1.1,0.3-1.7
			c0-1.8,0-3.7,0-5.5c0-1.1,0.7-1.8,1.8-1.8c0.7,0,1.5,0,2.2,0c1.3,0,2.6,0,4-0.1c1.2-0.1,1.6-0.6,1.6-1.8c0-6.8,0-13.5,0-20.3
			c0-2.2-1.3-3.5-3.5-3.5C30.5,3.4,25.8,3.4,21,3.4z"/>
		<path fill="#FFFFFF" d="M21,3.4c4.7,0,9.5,0,14.2,0c2.1,0,3.5,1.3,3.5,3.5c0,6.8,0,13.5,0,20.3c0,1.2-0.4,1.7-1.6,1.8
			c-1.3,0.1-2.6,0.1-4,0.1c-0.7,0-1.5,0-2.2,0c-1.1,0-1.8,0.7-1.8,1.8c0,1.8,0,3.7,0,5.5c0,0.6-0.2,1.2-0.3,1.7
			c-0.1,0.5-0.5,0.7-1,0.7c-0.8,0-1.5,0-2.3,0c-6.2,0-12.4,0-18.6,0c-2.2,0-3.5-1.3-3.5-3.5c0-9.5,0-18.9,0-28.4
			c0-2.2,1.3-3.5,3.5-3.5C11.6,3.4,16.3,3.4,21,3.4z M21,16.2c2.1,0,4.2,0,6.3,0c1.2,0,2.3,0,3.5,0c0.6,0,1.1-0.3,1.4-0.8
			c0.3-0.6,0.3-1.2-0.1-1.7c-0.4-0.6-1-0.7-1.7-0.7c-5.4,0-10.8,0-16.1,0c-0.9,0-1.8,0-2.7,0c-0.6,0-1.1,0.1-1.4,0.6
			c-0.4,0.5-0.5,1.1-0.2,1.7c0.3,0.6,0.8,1,1.5,1C14.6,16.2,17.8,16.2,21,16.2z M19.4,21c-0.8,0-1.6,0-2.5,0c-1.9,0-3.8,0-5.6,0
			c-0.7,0-1.3,0.4-1.5,1c-0.5,1.2,0.3,2.3,1.7,2.3c1.2,0,2.5,0,3.7,0c4,0,7.9,0,11.9,0c0.5,0,1-0.1,1.3-0.4c0.6-0.4,0.8-1.1,0.6-1.8
			c-0.2-0.7-0.8-1.1-1.6-1.1C24.7,21,22.1,21,19.4,21z"/>
		<path fill="#1C3664" d="M21,16.2c-3.2,0-6.4,0-9.6,0c-0.7,0-1.2-0.3-1.5-1c-0.3-0.6-0.2-1.2,0.2-1.7c0.4-0.4,0.9-0.6,1.4-0.6
			c0.9,0,1.8,0,2.7,0c5.4,0,10.8,0,16.1,0c0.6,0,1.3,0.1,1.7,0.7c0.4,0.6,0.4,1.2,0.1,1.7c-0.3,0.5-0.8,0.8-1.4,0.8
			c-1.2,0-2.3,0-3.5,0C25.1,16.2,23.1,16.2,21,16.2z"/>
		<path fill="#1C3664" d="M19.4,21c2.7,0,5.3,0,8,0c0.8,0,1.3,0.4,1.6,1.1c0.2,0.7,0.1,1.4-0.6,1.8c-0.4,0.2-0.9,0.4-1.3,0.4
			c-4,0-7.9,0-11.9,0c-1.2,0-2.5,0-3.7,0c-1.3,0-2.1-1.1-1.7-2.3c0.2-0.6,0.8-1,1.5-1c1.9,0,3.8,0,5.6,0C17.8,21,18.6,21,19.4,21z"
			/>
	</g>
</g>
</svg>
