<svg width="640" height="240" xmlns="http://www.w3.org/2000/svg" xmlns:xlink="http://www.w3.org/1999/xlink">
 <!-- Created with SVG-edit - http://svg-edit.googlecode.com/ -->
 <defs>
  <svg viewBox="0 205.9 600 186.3" y="0px" x="0px" id="svg_1" xmlns:xlink="http://www.w3.org/1999/xlink">
   <g id="Layer_2">
    <g id="svg_4">
     <g id="svg_5">
      <path d="m189.7,317.10001c0.7,-0.10001 1.10001,-0.10001 1.7,-0.10001c5.90001,0.10001 11.70001,0.10001 17.60001,0.29999c2.2,0.10001 4.39999,0.30002 6.5,1c4.10001,1.30002 5.89999,4.30002 5.7,8.5c-0.2,3.30002 -2.89999,6.30002 -6.59999,7.10001c-1.5,0.30002 -3.10001,0.60001 -5.20001,1c1.40001,0.39999 2.3,0.70001 3.20001,0.89999c4.39999,1.30002 5.79999,5.10001 7.09999,8.90002c0.7,2.09998 1.40001,4.19998 2.5,6.09998c2.2,3.80002 4.10001,3.70001 6.10001,0.70001c2.39999,-3.5 4.39999,-7.29999 6.2,-11.20001c3.5,-7.69998 6.8,-15.5 10.2,-23.29999c0.10001,-0.29999 0.3,-0.60001 0.7,-1.29999c0.90001,1.79999 1.60001,3.29999 2.3,4.89999c4,9 7.90001,18 11.90001,26.89999c0.89999,2.10001 2.69998,3.79999 4.10001,5.70001c0.19998,0.29999 0.29999,0.69998 0.59998,1.19998c-5.39999,0 -10.49998,0 -15.89999,0c0.3,-0.39999 0.5,-0.89999 0.70001,-1c2,-0.60001 2.39999,-2.19998 1.89999,-3.79999c-1,-3.20001 -2.3,-6.30002 -3.7,-9.30002c-0.2,-0.39999 -1,-0.69998 -1.5,-0.69998c-2.7,-0.10001 -5.40001,-0.10001 -8.10001,0c-0.5,0 -1.3,0.29999 -1.5,0.69998c-1,2.90002 -2,5.70001 -2.59999,8.70001c-0.5,2 0.7,3.5 2.7,4.29999c0.39999,0.10001 0.7,0.5 0.89999,1.10001c-7.7,0 -15.3,0 -23.2,0c-1,-3.39999 -1.89999,-7.10001 -3.10001,-10.5c-0.79999,-2.19998 -1.89999,-4.29999 -3.2,-6.29999c-1.3,-2.10001 -3.7,-2.30002 -5.89999,-2c-0.3,0.10001 -0.90001,0.60001 -0.90001,0.89999c0,4.29999 0.10001,8.5 0.3,12.79999c0.10001,2.30002 1.2,4 3.3,5.10001c-5.10001,0 -10.3,0 -16,0c4.5,-2.5 4,-6.5 4.10001,-10.10001c0.09999,-6.09998 0.09999,-12.29999 0.09999,-18.29999c0,-5.20001 0,-5.20001 -3,-8.89999l0,0l0,0zm14.2,1.79999c-2.89999,0 -2.89999,0 -2.89999,3c0,2.70001 -0.10001,5.5 0,8.30002c0.10001,4.19998 -0.89999,3.79999 4,3.69998c5.39999,-0.10001 8.5,-4.5 7.10001,-9.69998c-0.90001,-3.5 -3.70001,-5.30002 -8.20001,-5.30002l0,0zm42.5,18.89999c-1.5,-3.69998 -2.89999,-7.09998 -4.29999,-10.59998c-0.20001,0 -0.3,0.09998 -0.5,0.09998c-1.3,3.5 -2.70001,6.90002 -4.10001,10.5c3,0 5.8,0 8.89999,0z" fill="#003366" id="svg_6"/>
      <path d="m40.3,354.39999c-3.7,0 -7.4,0 -11.3,0c-0.7,-2.5 -1.4,-5.30002 -2.3,-7.89999c-0.9,-2.60001 -1.9,-5.20001 -3.1,-7.60001c-1.3,-2.60001 -3.6,-3.80002 -6.5,-3.30002c-0.5,0.10001 -1.1,0.70001 -1.1,0.90002c0.1,4.39999 0.1,8.79999 0.3,13.19998c0.1,1.89996 1.1,3.5 3.1,4.10001c0.1,0.10001 0.1,0.29999 0.3,0.5c-5.2,0 -10.3,0 -15.5,0c0,-0.10001 -0.1,-0.29999 -0.1,-0.29999c3.3,-1.80002 3.5,-5 3.5,-8.10001c0.1,-7.5 0.1,-14.89999 0.1,-22.39999c0,-2.40002 -0.5,-4.70001 -2.9,-6.5c0.5,-0.10001 1.1,-0.10001 1.6,-0.10001c5.9,0.10001 11.7,0.10001 17.6,0.29999c2.1,0.10001 4.3,0.30002 6.3,0.89996c4.1,1.19998 6,4.19998 5.8,8.5c-0.1,3.5 -2.7,6.30005 -6.7,7.30005c-1.5,0.39993 -3.1,0.60001 -4.7,1.19995c0.9,0.30005 1.8,0.5 2.7,0.69998c3.5,1.10007 5.3,3.70001 6.5,7c0.5,1.5 1,3 1.5,4.5c1.1,2.70001 2.1,5.5 4.9,7.10007zm-24.4,-28c-0.1,0 -0.1,0 0,0c0,1.10001 0,2.29999 0,3.5c0,4.29999 0,4.39999 4.3,3.89999c2.8,-0.29999 5.3,-1.29999 6.5,-4.10001c2.3,-5.29999 -0.8,-10.29999 -6.5,-10.69998c-0.9,-0.10001 -1.9,0 -2.7,-0.10001c-1.1,-0.10007 -1.5,0.39993 -1.5,1.5c-0.1,2 -0.1,4 -0.1,6z" fill="#003366" id="svg_7"/>
      <path d="m319.10001,335.39999c0.30002,-7.80002 3.5,-14.70001 11.39999,-17.70001c10.70001,-4.10001 23,1.70001 24.70001,14.70001c0.79999,6.29999 -0.10001,12.10001 -4.39999,16.89999c-5.10001,5.70001 -11.70001,7.29999 -19,5.10001c-7.30002,-2.20001 -11.20001,-7.5 -12.30002,-14.89999c-0.09998,-0.90002 -0.29999,-1.80002 -0.39999,-2.70001c0,-0.39999 0,-0.69998 0,-1.39999zm8.79999,0.30002c0.19998,0 0.29999,0.10001 0.5,0.10001c-0.10001,4.5 0.19998,9.10001 2.19998,13.19998c1.30002,2.70001 3.20001,4.70001 6.40002,4.70001c3.59998,0.10001 6.19998,-2.10001 7.59998,-6.20001c1.90002,-5.59998 1.80002,-11.39999 1.30002,-17.19998c-0.30002,-3.20001 -1,-6.39999 -2.80002,-9.20001c-2.69998,-4.10001 -8,-4.5 -11.19998,-0.69998c-0.89999,1.09998 -1.70001,2.5 -2.10001,3.79999c-0.69998,3.79999 -1.19998,7.59998 -1.89999,11.5z" fill="#003366" id="svg_8"/>
      <path d="m185.5,335.79999c-0.2,7.90002 -3.10001,14.30002 -10.5,17.70001c-11.3,5.20001 -24.60001,-1.70001 -25.7,-15.10001c-0.5,-5.5 0.3,-10.69998 3.7,-15.29999c4.5,-5.89999 10.89999,-7.89999 17.89999,-6.5c7.10001,1.29999 11.8,5.89999 13.70001,13c0.5,2 0.59999,4.19998 0.89999,6.19998l0,0l0,0zm-27.2,0c0,1.10001 -0.10001,2.10001 0,3.10001c0.59999,3.20001 1,6.5 2,9.60001c1.09999,3.5 3.89999,5.29999 7.2,5.20001c3.5,-0.10001 5.5,-2.30002 6.60001,-5.30002c0.89999,-2.39999 1.5,-5.10001 1.7,-7.60001c0.7,-5.5 0.5,-11 -1.10001,-16.29999c-0.2,-0.60001 -0.39999,-1.10001 -0.7,-1.70001c-1.5,-2.89999 -3.3,-5.09998 -7,-5c-3.5,0.10001 -5.5,2.20001 -6.7,5.10001c-1.7,4.10001 -2,8.5 -2,12.89999z" fill="#003366" id="svg_9"/>
      <path d="m66.9,328.20001c0,4.09998 0,8.5 0,13.39999c-2.5,-5.89999 -7.2,-6.30002 -12.3,-6.10001c-0.5,0 -1.2,0.60001 -1.2,0.89999c0,3.80002 -0.2,7.60001 0.3,11.30002c0.5,3.59998 2.5,4.89999 6.2,4.59998c4.8,-0.39999 8.3,-3.09998 11.3,-6.5c1.3,-1.39999 2.5,-3 4.10001,-4.29999c-0.3,1.10001 -0.5,2.20001 -0.8,3.29999c-0.7,2.70001 -1.5,5.30002 -2.1,7.90002c-0.3,1.5 -1.1,1.89999 -2.5,1.79999c-7.1,-0.20001 -14.2,-0.29999 -21.3,-0.39999c-2.1,0 -4.1,0.29999 -6.2,0.39999c-0.4,0 -0.8,-0.10001 -1.2,-0.10001c0,-0.29999 -0.1,-0.5 0,-0.5c3.3,-1.29999 3.8,-4.29999 3.8,-7.19998c0.1,-7.90002 0.1,-15.90002 0,-23.90002c0,-2.29999 -0.6,-4.29999 -3.1,-5.39999c0.4,-0.29999 0.5,-0.5 0.7,-0.5c8.6,0 17.2,0 25.9,-0.10001c1.1,0 1.8,0.30002 2.1,1.5c0.5,2.5 1.1,4.90002 1.6,7.30002c0.10001,0.29999 0,0.69998 -0.1,1.5c-0.6,-0.70001 -1,-1.10001 -1.4,-1.5c-4.1,-5.20001 -9.5,-7.5 -16.1,-6.70001c-0.5,0.10001 -1.1,0.70001 -1.1,1.20001c-0.1,4.10001 -0.1,8.29999 0,12.5c0,0.39999 0.6,1.10001 0.9,1.19998c2.8,0.20001 5.8,0.5 8.2,-1.19998c1.6,-1.20001 2.9,-3 4.3,-4.39999l0,0l0,0z" fill="#003366" id="svg_10"/>
      <path d="m364.5,324.39999c-0.10001,0.5 -0.10001,1 -0.10001,1.5c0,5.69998 -0.19998,11.5 0.10001,17.29999c0.10001,2.60001 0.89999,5.30002 1.89999,7.70001c0.5,1.19998 1.80002,2.10001 2.89999,3.29999c-3.89999,0 -7.69998,0 -11.5,0c2.10001,-1.39999 3.5,-3.39999 4.10001,-5.79999c0.5,-1.80002 1,-3.70001 1,-5.5c0.10001,-6.10001 0,-12.20001 -0.10001,-18.30002c-0.09998,-2.89999 -0.79999,-5.59998 -3.79999,-7.09998c0.5,-0.10001 0.89999,-0.10001 1.29999,-0.10001c2.70001,0 5.40002,0.10001 8.10001,0c1.30002,-0.10007 2.10001,0.29999 2.89999,1.29999c5.30002,6.30002 10.70001,12.60001 16,18.89996c0.5,0.60004 1.10001,1.10004 1.70001,1.69998c0.20001,-0.29999 0.39999,-0.5 0.39999,-0.60001c-0.19998,-5.10001 -0.30005,-10.10001 -0.69998,-15.10001c-0.20001,-2.39999 -1.70001,-4.39999 -3.70001,-6c3.60001,0 7.20001,0 10.79999,0c0,0.10001 0.10001,0.30002 0,0.30002c-4,2.89999 -4.79999,7.29999 -4.89999,11.69998c-0.10001,8 -0.10001,16.10001 -0.10001,24.10001c0,0.60001 -0.29999,1.20001 -0.5,1.80002c-0.5,-0.30002 -1.09998,-0.60001 -1.5,-1.10001c-7.69998,-9.60001 -15.29999,-19.30002 -22.89999,-28.89999c-0.29999,-0.39999 -0.5,-0.89999 -0.79999,-1.39999c-0.20001,0 -0.39999,0.10007 -0.60001,0.30005z" fill="#003366" id="svg_11"/>
      <path d="m80.3,341.89999c1.39999,2.60001 2.5,5.5 4.3,7.89999c3.1,4.10001 8.5,5.10001 12.6,2.5c2.5,-1.5 3.3,-4 3.2,-6.70001c-0.1,-2.5 -1.3,-4.5 -3.9,-5.19998c-3,-0.89999 -6.1,-1.70001 -9.1,-2.60001c-5.7,-1.70001 -7.8,-4.5 -7.9,-10.10001c-0.1,-5.89999 3.7,-9.10004 8.1,-10.5c6,-1.89999 11.8,-0.79999 17.6,1.10001c0.4,0.10001 1,1 0.9,1.39999c-0.6,2.80002 -1.3,5.5 -2.1,8.5c-0.9,-2.10004 -1.5,-4.10004 -2.5,-5.79999c-2.5,-4.30005 -7.3,-6 -11.1,-3.89999c-2.5,1.5 -3.5,3.89999 -3.3,6.69998c0.1,2.5 1.8,3.80002 4,4.39996c3,0.89999 6,1.69998 8.9,2.5c4.2,1.19998 7.5,3.30005 7.9,8.10004c0.5,5.10001 -1.2,9.39996 -5.7,12.20001c-4.6,2.89999 -9.7,3.29999 -14.8,2.19995c-2.9,-0.59998 -5.6,-1.59998 -8.4,-2.5c-0.9,-0.29999 -1.1,-0.89996 -0.9,-1.79996c0.8,-2.79999 1.6,-5.79999 2.2,-8.39999z" fill="#003366" id="svg_12"/>
      <path d="m45.1,281.89999c-2.9,0.89999 -3.3,3 -3.2,5.60001c0.1,2.59998 -0.1,5.29999 0.1,7.89999c0.1,1.29999 -0.4,2.10001 -1.4,2.69998c-3.3,2.20001 -6.9,3.20001 -10.8,3.80002c-6.3,1.10001 -12.5,0.29999 -18.1,-2.70001c-6.7,-3.69998 -9.8,-9.60001 -9.8,-17c0,-7.5 3.6,-13.5 10.3,-17c10.3,-5.39999 20.5,-3.69998 30.6,1.5c-0.9,2.20001 -1.7,4.10001 -2.6,6.5c-0.9,-3.79999 -2.8,-6.5 -6,-8c-8.8,-4.5 -20.3,-2.29999 -23.7,10.80002c-1.6,6.29999 -1.4,12.5 2.1,18.19998c4.2,6.89999 10.9,8.39999 18,6.10001c3.1,-1 4.4,-3.60001 4.6,-6.70001c0.2,-2.29999 0.1,-4.69998 0,-7c-0.1,-2.09998 -1.2,-3.29999 -3.5,-3.89999c-0.9,-0.29999 -1.7,-0.5 -3.1,-0.79999c5.9,0 11.2,0 16.5,0z" fill="#003366" id="svg_13"/>
      <path d="m301,301.60001c-3,0 -6.10001,0.10001 -9.10001,-0.10001c-0.5,0 -1,-0.60001 -1.29999,-1c-2.10001,-3.60001 -4.10001,-7.20001 -6.30002,-10.70001c-1.09998,-1.69998 -2.29999,-3.29999 -3.79999,-4.59998c-0.70001,-0.60001 -2.20001,-0.80002 -3,-0.5c-0.70001,0.29999 -1.20001,1.69998 -1.20001,2.59998c-0.09998,2.90002 -0.09998,5.90002 -0.09998,8.80002c0,2.5 1.09998,4.19998 3.89999,5.29999c-4.70001,0 -8.89999,0 -13.10001,0c3.5,-2.10001 3.20001,-5.69998 3.20001,-9.10001c0,-8.89999 0,-17.89999 0,-26.79999c0,-2.10001 -0.20001,-4.20001 -3.10001,-5.10001c3.29999,-0.79999 6.10001,-1.5 9.19998,-2.29999c0,8.69998 0,17.10001 0,26.10001c2.20001,-1.90002 4,-3.30002 5.80002,-4.90002c1.69998,-1.39999 3.29999,-2.69998 4.89999,-4.09998c2.10001,-1.90002 2.10001,-2.80002 0.29999,-4.90002c3.90002,0 7.90002,0 11.70001,0c-7.89999,2 -13.29999,8 -20.10001,12.80002c1.30002,0.19998 1.89999,0.39999 2.60001,0.5c3.39999,0.10001 6.10001,1.60001 8.10001,4.29999c1.19998,1.60001 2.29999,3.30002 3.39999,5c2.10001,3.30002 4.5,6.39999 8,8.70001l0,0l0,0z" fill="#003366" id="svg_14"/>
      <path d="m287.39999,354.20001c-5.5,0 -10.89999,0 -16.60001,0c0.39999,-0.29999 0.60001,-0.5 0.79999,-0.60001c2.40002,-0.89999 3.30002,-2.89999 3.30002,-5.19998c0.19998,-5.60001 0.29999,-11.30002 0.39999,-16.90002c0.10001,-2.79999 0.10001,-5.59998 0,-8.5c-0.10001,-4 -2.60001,-5.29999 -5.89999,-2.89999c-2.10001,1.5 -3.89999,3.70001 -5.70001,5.60001c-0.5,0.5 -0.89999,1.10001 -1.39999,1.70001c-0.10001,-0.10001 -0.29999,-0.10001 -0.39999,-0.30002c0.69998,-3.10001 1.39999,-6.10001 2.19998,-9.10001c0.10001,-0.29999 0.80002,-0.79999 1.20001,-0.79999c9.70001,-0.10001 19.29999,-0.10001 29.10001,-0.10001c0.79999,3.30002 1.60001,6.70001 2.39999,9.89999c-0.10001,0.10001 -0.29999,0.10001 -0.5,0.20001c-0.29999,-0.39999 -0.60001,-0.79999 -1,-1.10007c-1.70001,-1.89993 -3.5,-3.69992 -5.29999,-5.5c-0.5,-0.5 -1.30002,-0.89993 -2,-1.29999c-2.70001,-1.10001 -4.5,0 -4.5,3c0,8.39999 0,16.69998 0,25.10007c0.10001,2.99997 0.70001,3.8999 3.89999,6.79999z" fill="#003366" id="svg_15"/>
      <path d="m110.6,327.20001c0.7,-3 1.4,-6 2.1,-9c0.10001,-0.40002 0.9,-0.90002 1.3,-0.90002c9.7,-0.09998 19.3,-0.09998 29.10001,-0.09998c0.79999,3.39999 1.59999,6.69998 2.5,9.89999c-0.10001,0.10001 -0.3,0.10001 -0.40001,0.29999c-0.3,-0.39999 -0.7,-0.79999 -1.09999,-1.19998c-1.8,-1.90002 -3.60001,-3.80002 -5.5,-5.60001c-0.70001,-0.60001 -1.70001,-1.10001 -2.60001,-1.30002c-2.3,-0.59998 -3.7,0.5 -3.7,2.90002c-0.10001,8.5 -0.10001,17.09998 0,25.69998c0,2.60001 0.7,5.10001 3.59999,6.30002c-5.39999,0 -10.8,0 -16.2,0c4.4,-1.5 4.10001,-5.5 4.2,-8.80002c0.2,-7.39999 0.1,-14.79999 0.1,-22.19998c-0.1,-4.10001 -2.6,-5.5 -5.9,-3c-2.2,1.69998 -4,3.89999 -6,5.89999c-0.4,0.39999 -0.7,0.89999 -1,1.39999c-0.2,-0.10001 -0.3,-0.10001 -0.5,-0.29999l0,0l0,0z" fill="#003366" id="svg_16"/>
      <path d="m144.5,301.20001c-2.3,0 -4.10001,0.10001 -5.89999,-0.10001c-0.5,-0.10001 -1.3,-0.79999 -1.5,-1.5c-0.5,-1.39999 -0.70001,-2.89999 -1.10001,-4.69998c-0.5,0.69998 -0.89999,1.19998 -1.10001,1.69998c-2.39999,4.10001 -6.2,5.39999 -10.59999,5.10001c-2.3,-0.10001 -4.60001,-0.70001 -6.7,-1.70001c-3.4,-1.39999 -5,-4.29999 -5.1,-7.89999c-0.1,-3.69998 2.2,-6.10001 5.5,-7.5c5.1,-2.29999 10.5,-2.39999 15.8,-2.39999c1.8,0 2.3,-0.60001 2.2,-2.29999c-0.10001,-8.10001 -4.89999,-10.70001 -12,-9.60001c-4.2,0.60001 -6.7,3.29999 -8.2,7.5c-0.5,-1.80002 -1.10001,-3.30002 -1.4,-4.70001c-0.1,-0.29999 0.4,-1.10001 0.8,-1.29999c4.7,-2.10001 9.60001,-2.80002 14.7,-2.30002c2.3,0.20001 4.5,0.90002 6.70001,1.70001c3.7,1.5 5.29999,4.5 5.39999,8.39999c0.10001,5.30002 0.10001,10.70001 0,16c-0.2,2.29999 -0.10001,4.19998 2.5,5.60001zm-8.60001,-14.20001c0,-0.70001 0.09999,-1.70001 -0.10002,-2.5c-0.09998,-0.39999 -0.7,-1.10001 -1,-1.10001c-3.09998,0.20001 -6.29999,0 -9.19999,0.80002c-5.9,1.69998 -7.2,6.19998 -6.3,11.09998c0.5,2.90002 3.3,5.10001 6.1,5.40002c3.60001,0.39999 6.50002,-0.90002 8.30002,-4.10001c1.7,-2.80002 2.2,-6 2.2,-9.60001z" fill="#003366" id="svg_17"/>
      <path d="m262.10001,301.29999c-1.60001,0 -3.19998,-0.10001 -4.79999,0c-1.30002,0.10001 -1.90001,-0.5 -2.20001,-1.70001c-0.3,-1.39999 -0.7,-2.79999 -1,-4.5c-0.39998,0.5 -0.7,0.70001 -0.89998,1.10001c-2.20001,3.89999 -5.70001,5.70001 -10,5.70001c-2.8,0 -5.60002,-0.5 -8.10002,-1.89999c-3,-1.70001 -4.5,-4.30002 -4.5,-7.70001c-0.09999,-3.29999 1.60002,-5.89993 4.60002,-7.10001c3.09998,-1.19998 6.29999,-2 9.5,-2.5c2.5,-0.5 5.09998,-0.29999 7.7,-0.29999c1.3,0 1.70001,-0.5 1.70001,-1.70001c0,-4.10001 -0.70001,-7.89999 -4.89999,-9.60001c-4.7,-1.89999 -12.10001,-1.19998 -14.7,5.70001c-0.10002,0.29999 -0.20001,0.5 -0.5,1.20001c-0.5,-1.80002 -1.10002,-3.20001 -1.40001,-4.70001c-0.09999,-0.39999 0.40001,-1.10001 0.79999,-1.29999c6.89998,-2.80002 13.89998,-3.5 21.10002,-0.80002c3.90001,1.5 5.7,4.5 5.7,8.60001c0.10001,5.5 0.10001,11 0,16.5c-0.10004,2 0.29999,3.70001 1.89996,5zm-12,-18.29999c-2.09999,0.29999 -4.3,0.5 -6.3,1.10001c-5.7,1.79999 -7.29999,6.19998 -6.29999,11.29999c0.59999,2.89999 3.29999,5 6.09999,5.30002c3.7,0.39999 6.60002,-1.10001 8.40001,-4.30002c1.59999,-2.79999 2.09999,-5.89999 2,-9.10001c0.09999,-3.89999 0.09999,-3.89999 -3.90001,-4.29999z" fill="#003366" id="svg_18"/>
      <path d="m189.3,301.29999c2.8,-1.39999 3.39999,-3.89999 3.39999,-6.70001c0,-8.59998 -0.09999,-17.29999 0,-25.89999c0,-2.39999 -0.39999,-4.5 -3.3,-5.79999c4.60001,0 8.60001,0 12.90001,0c-3.5,1.79999 -2.7,5.10001 -2.8,8.10001c0,7.69998 0,15.29999 0,22.89999c0,4.39999 1.7,5.89999 5.89999,6.10001c6.10001,0.29999 11.90001,-0.5 17.10001,-4.30002c1.5,-1.10001 2.7,-2.39999 4.39999,-3.89999c-0.89999,3 -1.59999,5.89999 -2.5,8.60007c-0.09999,0.29999 -1.09999,0.69992 -1.7,0.69992c-11.09999,0.20001 -22.20001,0.20001 -33.39999,0.20001z" fill="#003366" id="svg_19"/>
      <path d="m302.10001,317.39999c3.80002,0 8,0 12.30002,0c-2.60001,1.69998 -2.20001,4.39999 -2.20001,6.69998c-0.10001,8 0.10001,16 0.20001,24.10001c0.09998,2.30002 0.69998,4.5 3.29999,5.5c-0.10001,0.10001 -0.20001,0.30002 -0.29999,0.30002c-5.10001,0 -10.10001,0 -15.20001,0c3.70001,-1.80002 3.5,-5.10001 3.5,-8.30002c0,-8.10001 0.10001,-16.10001 -0.10001,-24.19998c-0.10001,-1.29999 -1,-2.70001 -1.5,-4.10001z" fill="#003366" id="svg_20"/>
      <path d="m369.10001,271.79999c-0.5,1.70001 -1.10001,3.10001 -1.60001,4.79999c-3.29999,-5.5 -7.79999,-7.29999 -13.69998,-5.69998c-2.10001,0.5 -3.70001,1.69998 -4.60001,3.69998c-1.89999,4 0,7.5 4.5,8.20001c3.5,0.60001 7,0.89999 10.5,1.5c4.5,0.70001 6.39999,2.70001 7,6.5c0.5,3.5 -1.39999,6.89999 -4.79999,8.70001c-3.90002,2.09998 -8.30002,2.69998 -12.60001,2.5c-3.70001,-0.20001 -7.5,-1.10001 -11.20001,-1.70001c-1.5,-0.20001 -1.79999,-1 -1.39999,-2.29999c0.29999,-1.10001 0.70001,-2.30002 1.10001,-3.90002c1.69998,4.40002 5.10001,5.90002 9,6.70001c3.60001,0.70001 7.19998,0.70001 10.5,-1.10001c2.79999,-1.5 4.10001,-4.10001 3.5,-7.19998c-0.39999,-2.10001 -2.89999,-3.70001 -6.20001,-4c-3.29999,-0.40002 -6.5,-0.70001 -9.69998,-1.5c-2.90002,-0.70001 -5.5,-2.20001 -6.40002,-5.40002c-1.29999,-4.29999 1,-8.59998 5.90002,-10.29999c6.59998,-2.5 13.39996,-2 20.19998,0.5z" fill="#003366" id="svg_21"/>
      <path d="m335.60001,289.39999c-0.10001,0.39999 -0.29999,0.79999 -0.5,1.10001c-1.5,2.39999 -2.79999,5.09998 -4.79999,7c-5.39999,5.09998 -16.20001,5.29999 -19.20001,-4.90002c-0.89999,-3 -0.69998,-6.29999 -1,-9.39999c-0.10001,-1.29999 0.39999,-1.79999 1.70001,-1.79999c4.89999,0.10001 9.79999,0 14.69998,0c3,0 6,0 9.10001,0c-0.29999,-3.5 -1.89999,-6.30002 -4.5,-8.30002c-4.10001,-3.09998 -8.69998,-4.09998 -13.79999,-3.29999c-12.60001,2.10001 -17.30002,15.10001 -11.5,24.29999c3.69998,6 9.60001,7.90002 16.39999,7.5c6.59998,-0.5 10.89999,-4.09998 13.29999,-10.09998c0.30002,-0.70001 0.30002,-1.5 0.5,-2.20001c-0.10001,0.20001 -0.29999,0.10001 -0.39999,0.10001zm-20,-18c3.10001,-1.70001 6.5,-1.39999 9.39999,0.5c2.90002,1.89999 3.70001,4.89999 3.5,8.5c-6.09998,0 -12,0 -18.09998,0c0.49997,-3.79999 1.79999,-7.19998 5.19998,-9z" fill="#003366" id="svg_22"/>
      <path d="m106.3,281.39999c-7.5,0 -14.9,0 -22.3,0c-0.4,0 -0.9,0.10001 -1.3,0c-1.39999,-0.19998 -2,0.39999 -1.89999,1.89999c0.3,3.10001 0.1,6.40002 1,9.40002c3.1,10.09998 13.89999,9.89999 19.3,4.79999c2,-1.89999 3.2,-4.70001 4.8,-7.10001c0.2,-0.29999 0.3,-0.69998 0.6,-1.19998c1,4.29999 -5.3,11.29999 -11.2,12.29999c-9.7,1.70001 -18.9,-2.70001 -20.8,-12.39999c-1.9,-9.80002 3.9,-18.39999 15.6,-19.5c7,-0.60001 15.6,3.60001 16.2,11.79999l0,0l0,0zm-6.9,-1c0.2,-3.69998 -0.7,-6.69998 -3.7,-8.69998c-3.1,-1.90002 -6.5,-2.10001 -9.7,-0.10001c-3.1,2 -4.3,5.10001 -4.7,8.69998c6.1,0.10001 12,0.10001 18.1,0.10001z" fill="#003366" id="svg_23"/>
      <path d="m51.3,272.29999c2.8,-0.70001 5.5,-1.29999 8.3,-2.10001c0,2.5 0,4.89999 0,7.30002c1.7,-2 3.2,-3.90002 4.9,-5.5c1.8,-1.70001 4.2,-2.30002 7,-2.5c-0.8,1.89999 -1.5,3.69998 -2.2,5.5c-2.9,-0.80002 -5.7,-1.30002 -7.5,1.69998c-0.9,1.5 -1.7,3.30002 -1.9,5.10001c-0.3,4.79999 -0.1,9.70001 -0.1,14.5c0.1,2.70001 0.8,3.70001 3.3,5.10001c-4.1,0 -8.5,0 -12.9,0c3.3,-0.89999 3.6,-3.39999 3.6,-6.20001c-0.1,-6.10001 0,-12.10001 0,-18.19998c0.1,-2 -0.3,-3.79999 -2.5,-4.70001z" fill="#003366" id="svg_24"/>
      <path d="m159.39999,271.70001c2.3,0 4.2,0 6.2,0c0.3,1.29999 -0.10001,1.70001 -1.2,1.70001c-0.2,0 -0.3,0 -0.5,0c-4.3,0.09998 -4.3,0.09998 -4.3,4.29999c0,5.29999 0,10.5 0,15.79999c0,3.70001 0.89999,5.60001 3.89999,7.90002c-2.29999,0 -4.5,0.09998 -6.70001,0c-1.59998,-0.10001 -2.59998,-1.10001 -2.89998,-2.5c-0.2,-0.90002 -0.3,-1.90002 -0.3,-2.90002c0,-6.69998 -0.10001,-13.5 0,-20.19998c0,-1.70001 -0.39999,-2.5 -2.2,-2.30002c-0.7,0.10001 -1.3,0 -2.10002,-0.29999c4.70001,-1.89999 7.70001,-5.29999 10.20001,-9.60001c-0.09999,2.5 -0.09999,5.19998 -0.09999,8.10001z" fill="#003366" id="svg_25"/>
     </g>
     <path d="m342.79999,250.5c0,0 15.89999,-9.39999 19.39999,-14.3c0,0 6.80002,-5.7 13.5,-6.09999c0,0 18.10001,-3.70001 18.89999,-13.90001c0,0 5.70001,-2.7 7.60001,-2.3c0,0 0.70001,0.90001 0,1.5c0,0 -3.89999,4.90001 -0.89999,3.70001c0,0 2.70001,-2.5 2.70001,-5.3c0,0 2.5,-2.5 2.5,-3.90001c0,0 1,-2.7 2.69998,-1.29999c0,0 1.10001,1.59999 0,3.29999c0,0 -8.10001,7.8 -2.69998,4.40001c0,0 3.5,-3.10001 5.5,-3c0,0 2.09998,-2.5 5.29999,-1.7c0,0 3,-0.3 -0.29999,-2.3c0,0 -2.30002,-0.10001 -2.70001,0.3c0,0 -3.89999,0.29999 -2.5,-2.3c0,0 -0.29999,-1.90001 3.29999,-1.5c0,0 7.80002,2.20001 10.40002,6.20001l5.89999,0.10002c0,0 1.5,1.39998 2.10001,0.09999c0,0 5,-1.5 6.89999,6.10001c0,0 1.60001,20.09999 13.19998,15.8l7.20001,0.39998c0,0 -0.70001,4.79999 -2.89999,5.89998c0,0 0.10001,3.20001 0.79999,3.5c0,0 5.39999,5.3 5.5,6.5c0,0 -2.89999,3.10002 -2.29999,4.5l-0.70001,0.70001c0,0 -1.29999,2.29999 0.20001,2.29999c0,0 5.19998,0.70001 5.5,2.60001v0.79999h-2.80002c0,0 -0.69998,3.30002 -0.29999,3.60007c0,0 1.20001,0.69995 0.5,1.60001c0,0 -2.29999,0.89999 -1.10001,2.10001c0,0 0.39996,1.69998 2.30002,0.79999l2.5,-0.29999l0.89999,-0.5l0.79999,0.29999c0,0 2,0.5 0.80002,2.60001c0,0 -0.70001,2.29999 1,2.60001l6.59998,1c0,0 0.90002,0.69998 0.90002,1.5c0,0 6.59998,-0.20001 7.5,2.19998c0,0 1.39999,0.70001 1.79999,0c0,0 2.10001,-1.5 4.20001,-0.69998c2.09998,0.69998 1.89999,1.89999 3.09998,1.10001c0,0 3.70001,-0.90002 5.30002,1.89999h6.5c0,0 6.60001,3.29999 7.49997,4.10001c0,0 6.70001,-2.30002 10.80005,6.09998c0,0 10.19995,11.90002 9.69995,18.30002c0,0 -1.5,4 -2.69995,4.5c0,0 1.89996,-0.10001 2.69995,1.10007c0,0 0.40002,5.39993 -2.79999,5.5c0,0 -2.09998,-0.90002 -2.79999,-2.30005h-2.09998c0,0 -2.80005,-2.19995 -2.90002,-3.5l-3.09998,-0.5c0,0 -4.40002,-5.39996 -6.20001,-6.69995c0,0 -2.20001,0.29999 -1.10004,-3.30005l-1.19995,-0.19995l0.09998,-1.5l0.70001,-0.20001v-1c0,0 -4.90002,-0.20001 -5.10001,-0.60004c0,0 -1.80005,0.30005 -0.60007,1.89996c0,0 8.20007,6.90002 5.20007,14.30002c0,0 -2.10007,2.5 -1.70007,3.5l-1.89993,0.5c0,0 -2.20001,3.5 -2.10007,5.10007c-0.10001,0.29999 -2.10001,1.79999 -2.10001,2.29999v14.70001c0,0 -0.69998,6.09998 -5.19998,5.29999c0,0 -0.89999,5.60001 -6.30002,4.39996c0,0 -2.29999,2 -1.89999,4.89996c0,0 -0.5,4.30002 -3.89993,4.90002c0,0 1.89993,1.59998 1.69995,2.89999l2.39999,0.39999c0,0 0.79999,4.29999 -1.80002,3.89999c0,0 -4.10001,1.30002 -6.5,-0.60001c0,0 -2.10001,0.90002 -1.89999,3.30002c0,0 -1.69998,1.89999 -1.60001,3.10001c0,0 2.20001,0.09998 2.30002,1.69998c0,0 1.60001,1.10001 2.60001,-0.5c0,0 4.19998,-2.69998 4.19998,1.89999c0,0 1.30002,1.10001 0.89999,-2.5c0,0 3.70001,-4.89999 9.30002,-4.19998c0,0 10.29999,-14.89999 23.50006,-6.70001l2.20001,-0.29999c0,0 0.69995,-2.60001 2.29999,-2.5c0,0 1.5,-1.70001 1.5,-2.39999l6.70001,-0.10001c0,0 0.5,-1.5 2.09998,-1.70001c0,0 1.5,0.80002 3.40002,0c0,0 2.19995,-0.5 2.79999,0.39999l0.89996,-0.09998v-0.40002l6.30005,-0.29999c0,0 -2.20001,-2.60001 -2.10004,-5.29999l-0.29999,-3.30002c0,0 -2.70001,0.39993 -3.29999,1.89993c0,0 -6.5,0.30002 -8.70001,-2.5c0,0 1.20001,-6.89993 7.3999,-8.29999c0,0 4.89996,-6.10001 12.69995,-6.10001c0,0 2.90002,-0.10001 3.70001,0.10001c0,0 7.29999,-3.70001 14.70001,-1.10001l0.59998,0.30002c0,0 0.70001,-1.40002 3.20001,-0.60001c0,0 0.70001,1.5 2.29999,2.10001c0,0 1.40002,-1.90002 0.90002,-4.70001c0,0 3.90002,-2.5 4.79999,-3.39999c0.10004,0 5.70001,-0.69995 5.5,-0.69995c-2.89996,0.39993 4.5,-3.5 6.5,-3.39999c0,0 2.10004,1.79999 -1,2.89999c0,0 -2.5,1.30002 -2.39996,2.10001c0,0 -3.10004,1.39999 -0.19989,2.10001c0,0 6.69989,1.60001 0.5,4.69998c0,0 -0.20001,1.60001 0.5,1.80002c0,0 0.5,5.5 0.29999,6.10001c0,0 -2.29999,0.69998 -3.6001,0.19998c0,0 -5.10004,3.89999 -5.5,5.20001c0,0 -14.10004,2.5 -19.69989,-1.39999c0,0 -17.20001,0.69998 -17.5,3.5c0,0 -0.30011,4.29999 1.5,4.79999c0,0 2,5.20001 0,6.89999c0,0 -3.30011,2.5 -2.90002,3.70001c0,0 -24.79999,17.69998 -38.60004,18.60001c0,0 -7.30002,10.5 -12.90002,4.89999c0,0 -8.19998,6.29999 -10.79999,1.10001c0,0 -7.89999,-2.30002 -10.89999,-6l-2.80002,-0.10001c0,0 -0.5,-3.70001 4.20001,-6.70001c0,0 1.5,-3.5 2.5,-4.10001c0,0 0,-4.5 3.89999,-5.29999c0,0 -0.89999,-5.20001 4.5,-6.89999c0,0 1.70001,-0.70001 1.70001,-1.80002c0,0 2.29999,-10.09998 0.19998,-14.19998v-10.10001c0,0 -2.59998,-5.29999 -5.29999,-6.5c0,0 -5.5,0.10001 -11.20001,9.70001c0,0 -6,1.19998 -5.79999,-4.10007c0,0 -1.29999,-5.60001 4.20001,-4.89993c0,0 2.89999,-1.5 2.89999,-5.60007c0,0 -0.30002,-1.10001 2.5,-0.69995c0,0 3.5,-12.60007 1.39993,-14.30005c0,0 -3.89993,-4.80002 0.89999,-3.80002c0,0 -0.39999,-6.5 -3.69998,-6.89993l-1.70001,-1.69998l-2.10001,-0.30002l-0.69998,-1.39999l-3,-0.5c0,0 -1.5,-3.70001 -3.20001,-4.29999l-3.29999,-0.30002c0,0 -2.29999,-2.39999 -4.79999,-3.30005c0,0 -2.90002,1.30005 -2.80002,2.69998c0,0 -4.39999,-0.19998 -1.89999,4.30002l0.10004,1.69998c0,0 -6.10004,2 -6,4.10007l-0.10004,5.89993c0,0 -2.29999,3.20001 -2.20001,4.40002c0.10007,1.19998 -4.09998,0.59998 -2.69995,-3.5c1.39996,-4.10001 1.10004,-5.30002 2.30002,-6.20001s-0.60007,-1.20001 -2.19998,0.60001c-1.60004,1.80005 -0.60004,5.69998 -7.10004,4.60007l-0.19998,3.69998c0,0 -3.5,1.30002 -2.80002,2.60001c0,0 -0.89996,10.60001 -6,13.60001c0,0 2.69995,3.60001 -0.69998,8.89999c0,0 -0.19998,5.29999 0.69998,6.60001c0,0 5.69995,21.79999 -4.5,30.89999c0,0 -10.69998,15.10001 -17.30005,7.89999c0,0 -2,-1.10007 -2.09998,-6.10007c0,0 -0.5,-5.29999 -2.30002,-6.29999c0,0 -3.29999,-3.70001 0.60001,-6.89999c0,0 -0.70001,-5.30002 0.70001,-6.30002c0,0 1,-1.59998 -0.70001,-3.5c0,0 -1.29999,-12.09998 4.5,-18.09998c0,0 -1.70001,-8.40002 4.60004,-12c0,0 -1.30005,-6.80002 4.10004,-11.70001c0,0 5.29999,-10.10001 7.59998,-11.39999c0,0 0.80002,-2.80002 -1.79999,-1.5c0,0 -5.10001,8.89999 -9.70001,10.10007c0,0 -2.19998,5.29999 -6.59998,5.59998c0,0 -0.5,-1.69998 0.09998,-4.19998c0,0 9,-12.89999 13.30002,-16c0,0 1,-5.30002 4.69998,-5.70001c0,0 -0.09998,-2.89999 1.30002,-2.69998c0,0 0.89999,0.89999 0.5,2.59998l1.60001,0.10001c0,0 0.5,-3.10001 2.89999,-3.60001c0,0 2.10001,-0.89999 2.10001,1c0,0 -0.70001,2.10001 -2.10001,2.70001c0,0 3.69998,-1.70001 5.5,-1.79999c0,0 -0.89999,-4.90002 4.69998,-3c0,0 4.30002,-0.5 5.60001,0.69998c0,0 2.30002,-5.89999 6.60001,-2.29999c0,0 6.29999,0.89999 7.70001,5.69998c0,0 1,1.30002 2.79999,-4.09998c0,0 3.70001,0.19998 6.29999,2.69998l5.30002,-0.10007l0.10001,-1.09998c0,0 -5.10001,-3 -3.80002,-8.70001c0,0 -1,-1.70001 -5.29999,-1.70001c0,0 -2.39999,-2.69998 -3,-0.89993c0,0 -2.5,0.10001 -3.39999,-0.89999l-1.5,-0.10001c0,0 -1.20001,-5.5 1.19998,-6.60007l-4.29999,-0.29999c0,0 -3.10001,2.70001 -6.70001,1.20001c0,0 -8.5,-1.40002 -9.10001,0.79999c0,0 -5.29999,1 -5.89999,3.5c0,0 -5.69998,0.89999 -5.89999,-3l-5.5,0.20001c0,0 -3.70001,-3.30002 -3.89999,-7.5c0,0 -0.19995,-0.90002 -1.39993,-0.80002c0,0 -2,-3 -4.30002,-1.89998c0,0 -2.30005,-2.70001 -4.80005,-0.89998c0,0 -4.10001,5.99997 -4.10001,1.2c0,0 4.29999,-10.5 14.29999,-11.90001c0,0 2.30002,-2.79999 -6.09998,-1.89999c0,0 -4.40002,0.70001 -5.90002,2.8c0,0 -3.89993,3.7 -7,3.59999c0,0 0.60007,3.70001 -4.69998,2.40001c0,0 -2.89993,2.09999 -2.89993,2.89999l-7.90002,-0.20001c0,0 -5.79999,4.7 -10.79999,4.59999c0,0 -2.5,-1.39996 -3.60001,-3.09999l-3.80005,0.79999c0,0 1.19998,-3.7 3.10007,-5c0,0 1.39993,-2.29999 -1.90002,-2.5c0,0 -3.09998,0.39999 -5.29999,1.3c0.5,0.09999 -11.5,4.29999 -15.20001,1.39999z" fill="#003366" id="svg_26"/>
    </g>
   </g>
  </svg>
 </defs>
 <g display="inline">
  <title>Layer 1</title>
  <use x="-38.31699" y="88.05117" transform="matrix(0.9915599072985135,0,0,0.9915599072985135,40.25577631273968,-105.27738804889042) " id="svg_2" xlink:href="#svg_1"/>
  <text transform="matrix(1.7488176733590846,0,0,1.4258263034331267,-332.926599217235,-108.09111526018584) " font-weight="bold" xml:space="preserve" text-anchor="middle" font-family="Serif" font-size="26" id="svg_3" y="236.58883" x="395.93869" stroke-linecap="null" stroke-linejoin="null" stroke-width="0" stroke="null" fill="#000000">a Midwest Region Initiative</text>
 </g>
</svg>