<?xml version="1.0" encoding="utf-8"?>
<!-- Generator: Adobe Illustrator 17.1.0, SVG Export Plug-In . SVG Version: 6.00 Build 0)  -->
<!DOCTYPE svg PUBLIC "-//W3C//DTD SVG 1.1//EN" "http://www.w3.org/Graphics/SVG/1.1/DTD/svg11.dtd">
<svg version="1.1" id="Capa_1" xmlns="http://www.w3.org/2000/svg" xmlns:xlink="http://www.w3.org/1999/xlink" x="0px" y="0px"
	 viewBox="0 0 600 600" enable-background="new 0 0 600 600" xml:space="preserve">
<path fill="#003366" d="M515,403.2c-14.6,0-29.1,4.8-38.8,14.6l-31.6-34.1c21.8-26.7,34-60.8,34-97.1c0-58.3-31.6-106.9-77.7-136
	l38.8-68c4.8,2.5,9.7,2.5,14.6,2.5c24.3,0,43.8-19.5,43.8-43.8S476.1,0,454.2,0c-21.8,0-43.8,19.5-43.8,43.8
	c0,12.2,4.8,24.3,14.6,31.6l-38.8,68c-19.5-9.7-41.3-14.6-65.6-14.6c-36.5,0-70.4,12.2-94.7,31.6l-36.5-43.8
	c7.3-9.7,14.6-24.3,14.6-38.8c0-34-26.7-60.8-60.8-60.8S82.6,43.7,82.6,77.7s26.7,60.8,60.8,60.8c14.6,0,26.7-4.8,36.5-12.2l34,43.8
	c-29.1,29.1-48.5,67.9-48.5,114.1v2.5h-38.8c-4.8-21.8-24.3-36.5-48.6-36.5c-26.7,0-51,21.8-51,51c0,26.7,21.8,51,51,51
	c26.7,0,48.6-21.8,51-48.6h38.8c7.3,58.3,46.1,109.3,99.6,128.7L255.1,459c-7.3-2.5-17-4.8-26.7-4.8c-38.8,0-72.9,31.6-72.9,72.9
	c0,38.8,31.6,72.9,72.9,72.9c38.8,0,72.9-31.6,72.9-72.9c0-24.3-12.2-48.6-31.6-60.8l14.6-29.1c14.6,4.8,29.1,4.8,43.8,4.8
	c46.1,0,85-19.5,114.2-48.6l31.6,34c-4.8,9.7-9.7,19.5-9.7,31.6c0,31.6,26.7,58.3,58.3,58.3s58.3-26.7,58.3-58.3
	C573.3,427.5,546.5,403.2,515,403.2z"/>
</svg>
