<?xml version="1.0" encoding="utf-8"?>
<!-- Generator: Adobe Illustrator 18.1.0, SVG Export Plug-In . SVG Version: 6.00 Build 0)  -->
<!DOCTYPE svg PUBLIC "-//W3C//DTD SVG 1.1//EN" "http://www.w3.org/Graphics/SVG/1.1/DTD/svg11.dtd">
<svg version="1.1" id="Layer_1" xmlns="http://www.w3.org/2000/svg" xmlns:xlink="http://www.w3.org/1999/xlink" x="0px" y="0px"
	 viewBox="543.8 295.4 248.2 22.1" enable-background="new 543.8 295.4 248.2 22.1" xml:space="preserve">
<g>
	<path fill="#016699" d="M655.7,317.5c-0.6-6-11.8-6.6-21.1-6.6c-7.7,0-15.8,0.2-24.3,0.5c-8.3,0.2-16.8,0.5-24.5,0.5
		c-29.2,0-42-5.2-42-13.2v-3.2h26.5v1.6c0,3.9,8.5,5.4,22.1,5.4c5.6,0,11.2-0.2,17.8-0.5c6.3-0.1,13.4-0.5,21.1-0.5
		c23.7-0.1,32.4,2.6,36.1,7.5h0.6c3.8-4.8,12.8-7.5,36.4-7.5c8.1,0,15.2,0.2,21.8,0.5c6.3,0.1,12.1,0.5,17.4,0.5
		c13.6,0,22.3-1.3,22.3-5.4v-1.6h26.1v3.2c0,7.7-11.2,13.2-42.3,13.2c-7.7,0-16.2-0.1-24.5-0.5c-8.5-0.2-16.4-0.5-24.3-0.5
		c-8.7,0-20.5,0.6-21.1,6.6H655.7z"/>
</g>
</svg>
