<?xml version="1.0" encoding="utf-8"?>
<!-- Generator: Adobe Illustrator 18.0.0, SVG Export Plug-In . SVG Version: 6.00 Build 0)  -->
<!DOCTYPE svg PUBLIC "-//W3C//DTD SVG 1.1//EN" "http://www.w3.org/Graphics/SVG/1.1/DTD/svg11.dtd">
<svg version="1.1" id="Layer_1" xmlns="http://www.w3.org/2000/svg" xmlns:xlink="http://www.w3.org/1999/xlink" x="0px" y="0px"
	 viewBox="0 0 645.6 18.7" enable-background="new 0 0 645.6 18.7" xml:space="preserve">
<g>
	<path fill="#4C81C2" d="M56.9,18c-0.3-4.9-6-5.4-10.7-5.4c-3.9,0-8.1,0.2-12.3,0.4c-4.3,0.2-8.5,0.4-12.5,0.4C6.5,13.3,0,9.1,0,2.5
		L0,0l13.4,0v1.3c0,3.2,4.3,4.4,11.2,4.4c2.8,0,5.7-0.2,9-0.4c3.2-0.1,6.8-0.4,10.7-0.4c12-0.1,16.4,2.1,18.3,6.1H63
		c1.9-3.9,6.5-6.1,18.5-6.1c4.1,0,7.7,0.2,11.1,0.4c3.2,0.1,6.2,0.4,8.8,0.4c6.9,0,11.4-1.1,11.4-4.4V0l13.3,0v2.6
		c0,6.3-5.7,10.8-21.5,10.8c-3.9,0-8.2-0.1-12.5-0.4c-4.3-0.2-8.4-0.4-12.3-0.4c-4.4,0-10.4,0.5-10.7,5.4H56.9z"/>
</g>
<g>
	<path fill="#016699" d="M164.2,18.7c-0.2-4.9-3.5-5.4-6.3-5.4c-2.3,0-4.7,0.2-7.2,0.4c-2.5,0.2-5,0.4-7.3,0.4
		c-8.7,0-12.5-4.2-12.5-10.8V0.7h7.9V2c0,3.2,2.5,4.4,6.6,4.4c1.7,0,3.3-0.2,5.3-0.4c1.9-0.1,4-0.4,6.3-0.4
		c7.1-0.1,9.7,2.1,10.8,6.1h0.2c1.1-3.9,3.8-6.1,10.9-6.1c2.4,0,4.5,0.2,6.5,0.4c1.9,0.1,3.6,0.4,5.2,0.4c4.1,0,6.7-1.1,6.7-4.4V0.7
		h7.8v2.6c0,6.3-3.3,10.8-12.6,10.8c-2.3,0-4.8-0.1-7.3-0.4c-2.5-0.2-4.9-0.4-7.2-0.4c-2.6,0-6.1,0.5-6.3,5.4H164.2z"/>
</g>
<g>
	<path fill="#4C81C2" d="M254.7,18.7c-0.2-4.9-4.7-5.4-8.4-5.4c-3.1,0-6.3,0.2-9.7,0.4c-3.3,0.2-6.7,0.4-9.8,0.4
		c-11.7,0-16.8-4.2-16.8-10.8V0.7h10.6V2c0,3.2,3.4,4.4,8.8,4.4c2.2,0,4.5-0.2,7.1-0.4c2.5-0.1,5.3-0.4,8.4-0.4
		c9.4-0.1,12.9,2.1,14.4,6.1h0.2c1.5-3.9,5.1-6.1,14.5-6.1c3.2,0,6.1,0.2,8.7,0.4c2.5,0.1,4.8,0.4,7,0.4c5.5,0,8.9-1.1,8.9-4.4V0.7
		h10.4v2.6c0,6.3-4.5,10.8-16.9,10.8c-3.1,0-6.4-0.1-9.8-0.4c-3.4-0.2-6.6-0.4-9.7-0.4c-3.5,0-8.2,0.5-8.4,5.4H254.7z"/>
</g>
<g>
	<path fill="#016699" d="M369.8,18.7c-0.3-4.9-5.9-5.4-10.6-5.4c-3.9,0-7.9,0.2-12.2,0.4c-4.2,0.2-8.4,0.4-12.3,0.4
		c-14.6,0-21-4.2-21-10.8V0.7H327V2c0,3.2,4.2,4.4,11.1,4.4c2.8,0,5.6-0.2,8.9-0.4c3.1-0.1,6.7-0.4,10.6-0.4
		c11.8-0.1,16.2,2.1,18.1,6.1h0.3c1.9-3.9,6.4-6.1,18.2-6.1c4.1,0,7.6,0.2,10.9,0.4c3.1,0.1,6.1,0.4,8.7,0.4
		c6.8,0,11.2-1.1,11.2-4.4V0.7h13.1v2.6c0,6.3-5.6,10.8-21.2,10.8c-3.9,0-8.1-0.1-12.3-0.4c-4.2-0.2-8.3-0.4-12.2-0.4
		c-4.4,0-10.3,0.5-10.6,5.4H369.8z"/>
</g>
<g>
	<path fill="#4C81C2" d="M534.5,18.7c-0.5-4.9-9.6-5.4-17.2-5.4c-6.3,0-12.9,0.2-19.8,0.4c-6.8,0.2-13.7,0.4-20,0.4
		c-23.8,0-34.2-4.2-34.2-10.8V0.7h21.6V2c0,3.2,6.9,4.4,18,4.4c4.6,0,9.1-0.2,14.5-0.4c5.1-0.1,10.9-0.4,17.2-0.4
		c19.3-0.1,26.4,2.1,29.4,6.1h0.5c3.1-3.9,10.4-6.1,29.7-6.1c6.6,0,12.4,0.2,17.8,0.4c5.1,0.1,9.9,0.4,14.2,0.4
		c11.1,0,18.2-1.1,18.2-4.4V0.7h21.3v2.6c0,6.3-9.1,10.8-34.5,10.8c-6.3,0-13.2-0.1-20-0.4c-6.9-0.2-13.4-0.4-19.8-0.4
		c-7.1,0-16.7,0.5-17.2,5.4H534.5z"/>
</g>
</svg>
