<?xml version="1.0" encoding="utf-8"?>
<!-- Generator: Adobe Illustrator 13.0.0, SVG Export Plug-In . SVG Version: 6.00 Build 14948)  -->
<!DOCTYPE svg PUBLIC "-//W3C//DTD SVG 1.1//EN" "http://www.w3.org/Graphics/SVG/1.1/DTD/svg11.dtd">
<svg version="1.1" id="Layer_1" xmlns="http://www.w3.org/2000/svg" xmlns:xlink="http://www.w3.org/1999/xlink" x="0px" y="0px"
	 width="40px" height="40px" viewBox="0 0 40 40" enable-background="new 0 0 40 40" xml:space="preserve">
<g>
	<path fill="#FFFFFF" d="M40,4c0,2.209-1.791,4-4,4H4C1.791,8,0,6.209,0,4l0,0c0-2.209,1.791-4,4-4h32C38.209,0,40,1.791,40,4L40,4z
		"/>
	<path fill="#FFFFFF" d="M40,20c0,2.209-1.791,4-4,4H4c-2.209,0-4-1.791-4-4l0,0c0-2.209,1.791-4,4-4h32C38.209,16,40,17.791,40,20
		L40,20z"/>
	<path fill="#FFFFFF" d="M40,36c0,2.209-1.791,4-4,4H4c-2.209,0-4-1.791-4-4l0,0c0-2.209,1.791-4,4-4h32C38.209,32,40,33.791,40,36
		L40,36z"/>
	<path fill="#5F5F5F" d="M4,1h32c2.037,0,3.701,1.53,3.949,3.5C39.971,4.334,40,4.171,40,4c0-2.209-1.791-4-4-4H4
		C1.791,0,0,1.791,0,4c0,0.171,0.03,0.334,0.05,0.5C0.299,2.529,1.962,1,4,1z"/>
	<path fill="#5F5F5F" d="M4,17h32c2.037,0,3.701,1.529,3.949,3.5C39.971,20.334,40,20.171,40,20c0-2.209-1.791-4-4-4H4
		c-2.209,0-4,1.791-4,4c0,0.172,0.03,0.335,0.05,0.5C0.299,18.529,1.962,17,4,17z"/>
	<path fill="#5F5F5F" d="M4,33h32c2.037,0,3.701,1.529,3.949,3.5C39.971,36.334,40,36.172,40,36c0-2.209-1.791-4-4-4H4
		c-2.209,0-4,1.791-4,4c0,0.172,0.03,0.334,0.05,0.5C0.299,34.529,1.962,33,4,33z"/>
</g>
</svg>
