<?xml version="1.0" encoding="utf-8"?>
<!-- Generator: Adobe Illustrator 17.1.0, SVG Export Plug-In . SVG Version: 6.00 Build 0)  -->
<!DOCTYPE svg PUBLIC "-//W3C//DTD SVG 1.1//EN" "http://www.w3.org/Graphics/SVG/1.1/DTD/svg11.dtd">
<svg version="1.1" id="Capa_1" xmlns="http://www.w3.org/2000/svg" xmlns:xlink="http://www.w3.org/1999/xlink" x="0px" y="0px"
	 viewBox="0 0 22.5 24.6" enable-background="new 0 0 22.5 24.6" xml:space="preserve">
<path fill="#5F95AC" d="M20.1,16.6c-0.6,0-1.2,0.2-1.6,0.6l-1.3-1.4c0.9-1.1,1.4-2.5,1.4-4c0-2.4-1.3-4.4-3.2-5.6L17,3.4
	c0.2,0.1,0.4,0.1,0.6,0.1c1,0,1.8-0.8,1.8-1.8S18.5,0,17.6,0s-1.8,0.8-1.8,1.8c0,0.5,0.2,1,0.6,1.3l-1.6,2.8
	c-0.8-0.4-1.7-0.6-2.7-0.6c-1.5,0-2.9,0.5-3.9,1.3L6.7,4.8c0.3-0.4,0.6-1,0.6-1.6c0-1.4-1.1-2.5-2.5-2.5c-1.4,0-2.5,1.1-2.5,2.5
	s1.1,2.5,2.5,2.5c0.6,0,1.1-0.2,1.5-0.5l1.4,1.8c-1.2,1.2-2,2.8-2,4.7c0,0,0,0.1,0,0.1H4.1c-0.2-0.9-1-1.5-2-1.5
	c-1.1,0-2.1,0.9-2.1,2.1c0,1.1,0.9,2.1,2.1,2.1c1.1,0,2-0.9,2.1-2h1.6c0.3,2.4,1.9,4.5,4.1,5.3l-0.5,1.1c-0.3-0.1-0.7-0.2-1.1-0.2
	c-1.6,0-3,1.3-3,3c0,1.6,1.3,3,3,3c1.6,0,3-1.3,3-3c0-1-0.5-2-1.3-2.5l0.6-1.2c0.6,0.2,1.2,0.2,1.8,0.2c1.9,0,3.5-0.8,4.7-2l1.3,1.4
	c-0.2,0.4-0.4,0.8-0.4,1.3c0,1.3,1.1,2.4,2.4,2.4c1.3,0,2.4-1.1,2.4-2.4C22.5,17.6,21.4,16.6,20.1,16.6z"/>
</svg>
